<svg aria-hidden="true" style="position: absolute; width: 0; height: 0; overflow: hidden;" version="1.1" xmlns="http://www.w3.org/2000/svg" xmlns:xlink="http://www.w3.org/1999/xlink">
<defs>
<symbol id="icon-menu" viewBox="0 0 20 20">
<path d="M0 3h20v2h-20v-2zM0 9h20v2h-20v-2zM0 15h20v2h-20v-2z"></path>
</symbol>
<symbol id="icon-people" viewBox="0 0 24 24">
<path d="M9 12.984q1.5 0 3.281 0.422t3.258 1.406 1.477 2.203v3h-16.031v-3q0-1.219 1.477-2.203t3.258-1.406 3.281-0.422zM15 12q-0.609 0-1.313-0.234 1.313-1.547 1.313-3.75 0-0.891-0.375-2.016t-0.938-1.781q0.703-0.234 1.313-0.234 1.641 0 2.813 1.195t1.172 2.836-1.172 2.813-2.813 1.172zM5.016 8.016q0-1.641 1.172-2.836t2.813-1.195 2.813 1.195 1.172 2.836-1.172 2.813-2.813 1.172-2.813-1.172-1.172-2.813zM16.688 13.125q2.484 0.375 4.406 1.383t1.922 2.508v3h-4.031v-3q0-2.297-2.297-3.891z"></path>
</symbol>
<symbol id="icon-wifi" viewBox="0 0 40 32">
<path d="M20 18c3.308 0 6.308 1.346 8.481 3.519l-2.827 2.827c-1.449-1.449-3.449-2.346-5.654-2.346s-4.206 0.897-5.654 2.346l-2.827-2.827c2.173-2.173 5.173-3.519 8.481-3.519zM5.858 15.858c3.777-3.777 8.8-5.858 14.142-5.858s10.365 2.080 14.142 5.858l-2.828 2.828c-3.022-3.022-7.040-4.686-11.314-4.686s-8.292 1.664-11.314 4.686l-2.828-2.828zM30.899 4.201c3.334 1.41 6.329 3.429 8.899 6v0l-2.828 2.828c-4.533-4.533-10.56-7.029-16.971-7.029s-12.438 2.496-16.971 7.029l-2.828-2.828c2.571-2.571 5.565-4.589 8.899-6 3.453-1.461 7.12-2.201 10.899-2.201s7.446 0.741 10.899 2.201zM18 28c0-1.105 0.895-2 2-2s2 0.895 2 2c0 1.105-0.895 2-2 2s-2-0.895-2-2z"></path>
</symbol>
<symbol id="icon-surface" viewBox="0 0 32 32">
<path d="M28 0h-24c-2.2 0-4 1.8-4 4v24c0 2.2 1.8 4 4 4h24c2.2 0 4-1.8 4-4v-24c0-2.2-1.8-4-4-4zM28 28h-24v-24h24v24z"></path>
</symbol>
<symbol id="icon-facebook" viewBox="0 0 32 32">
<path d="M29 0h-26c-1.65 0-3 1.35-3 3v26c0 1.65 1.35 3 3 3h13v-14h-4v-4h4v-2c0-3.306 2.694-6 6-6h4v4h-4c-1.1 0-2 0.9-2 2v2h6l-1 4h-5v14h9c1.65 0 3-1.35 3-3v-26c0-1.65-1.35-3-3-3z"></path>
</symbol>
<symbol id="icon-beach" viewBox="0 0 24 24">
<path d="M17.391 8.813q-2.344-2.344-5.414-3.094t-5.977 0.234q2.25-0.281 4.945 0.867t4.992 3.445l-5.719 5.719q-2.297-2.297-3.445-4.992t-0.867-4.945q-0.984 2.906-0.234 5.977t3.094 5.414l-2.859 2.859q-2.953-2.953-2.953-7.148t2.953-7.148q0-0.047 0.047-0.047 3.281-3.281 7.875-2.906 3.797 0.281 6.422 2.906zM13.078 14.578l1.453-1.453 6.422 6.469-1.453 1.406z"></path>
</symbol>
<symbol id="icon-phone" viewBox="0 0 32 32">
<path d="M22 20c-2 2-2 4-4 4s-4-2-6-4-4-4-4-6 2-2 4-4-4-8-6-8-6 6-6 6c0 4 4.109 12.109 8 16s12 8 16 8c0 0 6-4 6-6s-6-8-8-6z"></path>
</symbol>
<symbol id="icon-email" viewBox="0 0 32 32">
<path d="M29 4h-26c-1.65 0-3 1.35-3 3v20c0 1.65 1.35 3 3 3h26c1.65 0 3-1.35 3-3v-20c0-1.65-1.35-3-3-3zM12.461 17.199l-8.461 6.59v-15.676l8.461 9.086zM5.512 8h20.976l-10.488 7.875-10.488-7.875zM12.79 17.553l3.21 3.447 3.21-3.447 6.58 8.447h-19.579l6.58-8.447zM19.539 17.199l8.461-9.086v15.676l-8.461-6.59z"></path>
</symbol>
<symbol id="icon-calendar" viewBox="0 0 32 32">
<path d="M10 12h4v4h-4zM16 12h4v4h-4zM22 12h4v4h-4zM4 24h4v4h-4zM10 24h4v4h-4zM16 24h4v4h-4zM10 18h4v4h-4zM16 18h4v4h-4zM22 18h4v4h-4zM4 18h4v4h-4zM26 0v2h-4v-2h-14v2h-4v-2h-4v32h30v-32h-4zM28 30h-26v-22h26v22z"></path>
</symbol>
<symbol id="icon-lift" viewBox="0 0 512 512">
    <rect y="496.289" width="512" height="15.61"/>
    <polygon points="112.39,103.969 112.39,487.969 128,487.969 128,119.579 384,119.579 384,487.969 399.61,487.969 399.61,103.969"/>
    <rect x="247.675" y="127.909" width="15.61" height="360.065"/>
	<path d="M416.193,272.098v111.609h63.61V272.098H416.193z M464.193,368.097h-32.39v-80.389h32.39V368.097z"/>
    <rect x="440.195" y="303.768" width="15.61" height="15.61"/>
    <rect x="440.195" y="336.029" width="15.61" height="15.61"/>
	<path d="M112.197,0.101v87.609h287.606V0.101H112.197z M384.193,72.101H127.806v-56.39h256.386V72.101z"/>
    <polygon points="160.001,28.869 138.482,50.388 149.521,61.425 160.001,50.944 170.482,61.425 181.52,50.388 		"/>
    <polygon points="226.482,26.387 216.001,36.869 205.52,26.387 194.482,37.425 216.001,58.944 237.519,37.425 		"/>
	<rect x="256" y="40.489" width="15.61" height="15.61"/>
    <rect x="279.935" y="40.489" width="15.61" height="15.61"/>
    <rect x="303.87" y="40.489" width="15.61" height="15.61"/>
	<rect x="327.805" y="40.489" width="16.65" height="15.61"/>
	<rect x="351.74" y="40.489" width="16.65" height="15.61"/>
    <path d="M16.199,104.101v127.608h79.609V104.101H16.199z M80.198,216.099H31.809v-96.388h48.389V216.099z"/>
    <rect x="39.545" y="136.234" width="32.26" height="15.61"/>
	<rect x="39.545" y="160.169" width="24.976" height="15.61"/>
    <rect x="39.545" y="184.104" width="16.65" height="15.61"/>
</symbol>
<symbol viewBox="-12.92 0 122.88 122.88" id="icon-washingMachine">
<path d="M48.68,40.62c8.77,0,16.7,3.55,22.45,9.3c5.74,5.74,9.3,13.68,9.3,22.45c0,8.77-3.55,16.7-9.3,22.45 c-5.74,5.74-13.68,9.3-22.45,9.3c-8.77,0-16.7-3.55-22.45-9.3c-5.74-5.74-9.3-13.68-9.3-22.45c0-8.77,3.55-16.7,9.3-22.45 C31.97,44.17,39.91,40.62,48.68,40.62L48.68,40.62z M22.36,9.8c3.81,0,6.89,3.09,6.89,6.89s-3.09,6.89-6.89,6.89 s-6.89-3.09-6.89-6.89S18.56,9.8,22.36,9.8L22.36,9.8z M59.32,14.7c1.22,0,2.22,0.99,2.22,2.22c0,1.22-0.99,2.22-2.22,2.22 c-1.22,0-2.22-0.99-2.22-2.22C57.11,15.69,58.1,14.7,59.32,14.7L59.32,14.7z M68.93,14.7c1.22,0,2.22,0.99,2.22,2.22 c0,1.22-0.99,2.22-2.22,2.22c-1.22,0-2.22-0.99-2.22-2.22C66.71,15.69,67.7,14.7,68.93,14.7L68.93,14.7z M78.53,14.7 c1.22,0,2.22,0.99,2.22,2.22c0,1.22-0.99,2.22-2.22,2.22c-1.22,0-2.22-0.99-2.22-2.22C76.31,15.69,77.31,14.7,78.53,14.7 L78.53,14.7z M4.44,28.42h87.83V6.07c0-0.45-0.18-0.85-0.48-1.15c-0.3-0.3-0.7-0.48-1.15-0.48H6.07c-0.45,0-0.85,0.18-1.15,0.48 c-0.3,0.3-0.48,0.7-0.48,1.15V28.42L4.44,28.42z M96.71,29.47c0.21,0.34,0.33,0.74,0.33,1.17c0,0.43-0.12,0.83-0.33,1.17v85.01 c0,1.67-0.68,3.19-1.78,4.29c-1.1,1.1-2.62,1.78-4.29,1.78H6.07c-1.67,0-3.19-0.68-4.29-1.78C0.68,120,0,118.48,0,116.81V6.07 C0,4.4,0.68,2.88,1.78,1.78C2.88,0.68,4.4,0,6.07,0h84.57c1.67,0,3.19,0.68,4.29,1.78c1.1,1.1,1.78,2.62,1.78,4.29V29.47 L96.71,29.47z M92.27,32.86H4.44v83.95c0,0.45,0.18,0.85,0.48,1.15c0.3,0.3,0.7,0.48,1.15,0.48h84.57c0.45,0,0.85-0.18,1.15-0.48 c0.3-0.3,0.48-0.7,0.48-1.15V32.86L92.27,32.86z M23.53,74.3c-0.98-0.49-1.37-1.67-0.89-2.64c0.49-0.97,1.67-1.37,2.64-0.89 c0.43,0.21,1.07,0.55,1.72,0.89c3.7,1.95,8.34,4.38,12.24,2.31c12.99-6.93,14.55-5.06,17.08-2.02c0.93,1.11,2.07,2.48,5.5,2.9 c0.98,0.12,2.24-0.13,3.85-0.74c1.82-0.69,3.99-1.79,6.57-3.28c0.94-0.54,2.14-0.22,2.68,0.72c0.54,0.94,0.22,2.14-0.72,2.68 c-2.79,1.61-5.14,2.8-7.14,3.56c-2.22,0.84-4.09,1.17-5.71,0.97c-4.96-0.61-6.66-2.65-8.04-4.3c-1.26-1.51-2.04-2.45-12.2,2.98 c-5.74,3.06-11.4,0.08-15.92-2.29C24.66,74.88,24.17,74.62,23.53,74.3L23.53,74.3z M68.33,52.7c-5.03-5.03-11.98-8.14-19.65-8.14 c-7.68,0-14.62,3.11-19.65,8.14c-5.03,5.03-8.14,11.98-8.14,19.65c0,7.68,3.11,14.62,8.14,19.65c5.03,5.03,11.98,8.14,19.65,8.14 c7.68,0,14.62-3.11,19.65-8.14c5.03-5.03,8.14-11.98,8.14-19.65C76.47,64.68,73.36,57.73,68.33,52.7L68.33,52.7z"/>
</symbol>
<symbol id="icon-hairDryer" viewBox="0 0 512.277 512.277">
			<path d="M509.756,131.543c-0.206-1.834-0.453-3.657-0.727-5.473c-0.007-0.049-0.014-0.099-0.022-0.148
				c-0.263-1.735-0.559-3.46-0.882-5.176c-0.037-0.195-0.074-0.39-0.111-0.585c-0.306-1.59-0.634-3.173-0.991-4.746
				c-0.093-0.414-0.195-0.826-0.292-1.239c-0.253-1.072-0.518-2.139-0.794-3.202c-0.294-1.138-0.605-2.269-0.925-3.398
				c-0.129-0.452-0.257-0.904-0.39-1.354c-4.033-13.723-10.022-26.721-17.871-38.805c-0.167-0.258-0.336-0.515-0.505-0.772
				c-0.742-1.128-1.499-2.249-2.274-3.36c-0.487-0.701-0.979-1.397-1.477-2.089c-0.377-0.522-0.751-1.045-1.135-1.563
				c-0.815-1.102-1.649-2.189-2.493-3.268c-0.328-0.419-0.657-0.837-0.99-1.253c-0.85-1.062-1.712-2.114-2.589-3.152
				c-0.176-0.208-0.341-0.423-0.518-0.631c-0.033-0.033-0.069-0.06-0.102-0.092c-23.794-27.795-57.52-46.839-95.471-51.108
				c-21.333-2.56-42.667-0.853-63.147,5.973C223.036,35.97,140.262,50.477,60.902,50.477h-10.24c-28.16,0-51.2,23.04-51.2,51.2
				v102.4c0,28.16,23.04,51.2,51.2,51.2h25.6h19.627c53.629,0,109.829,7.197,169.791,21.979L217.063,407.17
				c-14.507,39.253,5.973,84.48,45.227,98.987c9.387,3.413,17.92,5.12,27.307,5.12c30.72,0,60.587-18.773,70.827-49.493
				l67.833-179.214c16.807-8.304,32.038-19.802,44.807-34.119C501.222,216.023,514.876,175.063,509.756,131.543z M493.542,134.103
				c3.413,33.28-5.12,66.56-24.747,93.013c-19.627-26.453-28.16-59.733-24.747-93.013c2.56-23.04,11.093-44.373,24.747-63.147
				C482.449,88.877,490.982,111.063,493.542,134.103z M50.662,238.21c-18.773,0-34.133-15.36-34.133-34.133v-102.4
				c0-18.773,15.36-34.133,34.133-34.133h10.24c2.56,0,5.12,0,6.827,0V238.21H50.662z M314.967,290.861
				c1.214,0.37,2.425,0.733,3.642,1.109c14.507,4.267,29.013,5.973,43.52,5.973c1.615,0,3.224-0.034,4.83-0.085l-19.337,51.285
				c-5.12,12.8-20.48,20.48-33.28,15.36c-7.68-2.56-12.8-8.533-15.36-16.213c-1.707-5.12-1.707-11.947,0.853-17.92L314.967,290.861z
				 M345.916,454.957c-11.093,30.72-46.08,46.933-76.8,34.987c-30.72-11.093-46.933-46.08-34.987-76.8l49.443-131.279
				c5.061,1.358,10.15,2.769,15.266,4.233l-14.362,38.299c-4.267,10.24-4.267,20.48-1.707,29.013c3.413,12.8,12.8,23.04,25.6,27.307
				c5.12,1.707,10.24,2.56,15.36,2.56c17.92,0,34.133-11.093,40.107-27.307l22.915-60.053c7.24-1.198,14.345-2.917,21.264-5.141
				L345.916,454.957z M421.297,267.193c-1.206-0.019-2.454,0.26-3.702,0.884c-11.699,5.571-23.764,9.311-36.191,11.245
				c-0.693-0.1-1.426-0.152-2.209-0.152c-6.827,0.853-11.947,0.853-17.067,0.853c-13.653,0-26.453-2.56-38.4-5.973
				c-1.707,0-4.267-0.853-6.827-1.707l-3.381-0.676C235.102,249.12,163.546,238.21,95.889,238.21H84.796V67.121
				c73.942-2.573,151.762-17.087,237.227-44.805c17.92-5.973,36.693-7.68,56.32-5.12c30.615,3.499,58.313,18.209,79.079,39.758
				c-16.919,21.814-27.299,47.113-30.439,74.589c-4.853,39.629,6.401,78.486,30.836,109.317
				C447.053,251.717,434.693,260.587,421.297,267.193z"/>
			<path d="M400.529,135.81h-102.4c-5.12,0-8.533,3.413-8.533,8.533c0,5.12,3.413,8.533,8.533,8.533h102.4
				c5.12,0,8.533-3.413,8.533-8.533C409.063,139.223,405.649,135.81,400.529,135.81z"/>
			<path d="M383.462,178.477h-68.267c-5.12,0-8.533,3.413-8.533,8.533s3.413,8.533,8.533,8.533h68.267
				c5.12,0,8.533-3.413,8.533-8.533S388.582,178.477,383.462,178.477z"/>
			<path d="M315.196,110.21h68.267c5.12,0,8.533-3.413,8.533-8.533s-3.413-8.533-8.533-8.533h-68.267
				c-5.12,0-8.533,3.413-8.533,8.533S310.076,110.21,315.196,110.21z"/>
</symbol>
<symbol id="icon-iron" viewBox="0 0 512.475 512.475">
			<path d="M309.805,94.695c-5.207,0.868-137.112,21.695-188.312,108.475c-1.736,2.603-1.736,6.075,0,8.678s4.339,4.339,7.81,4.339
				h199.593c2.603,0,5.207-0.868,6.075-3.471c1.736-1.736,1.736-4.339,1.736-6.942l-17.356-104.136
				C318.483,97.298,314.144,93.827,309.805,94.695z M145.792,198.831c43.39-57.275,131.037-79.837,158.807-85.044l13.885,85.044
				H145.792z"/>
			<path d="M398.321,94.695c-24.298,0-43.39,19.091-43.39,43.39c0,24.298,19.091,43.39,43.39,43.39
				c24.298,0,43.39-19.092,43.39-43.39C441.711,113.786,422.619,94.695,398.321,94.695z M398.321,164.119
				c-14.753,0-26.034-11.281-26.034-26.034c0-14.753,11.281-26.034,26.034-26.034c14.753,0,26.034,11.281,26.034,26.034
				C424.355,152.837,413.073,164.119,398.321,164.119z"/>
			<path d="M460.91,236.281c19.018-12.035,41.546-11.417,41.546-11.417c2.603,0,5.207-0.868,6.942-3.471s2.603-5.207,1.736-7.81
				L459.066,22.668c-1.736-3.471-4.339-6.075-8.678-6.075c-2.237,0-139.989,3.972-269.017,77.401V76.471
				c0-8.678-7.81-16.488-16.488-16.488h-36.447c-8.678,0-16.488,7.81-16.488,16.488v65.509
				C67.612,179.082,28.015,227.135,0.263,289.374c-0.103,0.187-0.195,0.377-0.261,0.575c-0.868,2.603-1.736,6.075,0,8.678
				l6.942,13.017c7.81,15.62,24.298,26.034,42.522,26.034h374.888c5.207,0,8.678-3.471,8.678-8.678v-34.712
				c0-17.745,4.07-32.003,12.198-43.256c27.011,1.828,48.547,24.481,48.547,51.934V415.78c0,19.092-15.62,34.712-34.712,34.712
				c-19.091,0-34.712-15.62-34.712-34.712c0-28.637-23.431-52.068-52.068-52.068c-25.681,0-47.161,18.847-51.325,43.39h-18.098
				c-5.207,0-8.678,3.471-8.678,8.678v43.39c0,5.207,3.471,8.678,8.678,8.678v17.356c0,5.207,3.471,8.678,8.678,8.678
				c5.207,0,8.678-3.471,8.678-8.678v-17.356h17.356v17.356c0,5.207,3.471,8.678,8.678,8.678s8.678-3.471,8.678-8.678v-17.356
				c5.207,0,8.678-3.471,8.678-8.678v-43.39c0-5.207-3.471-8.678-8.678-8.678h-16.25c3.879-14.928,17.508-26.034,33.606-26.034
				c19.092,0,34.712,15.62,34.712,34.712c0,28.637,23.431,52.068,52.068,52.068s52.068-23.431,52.068-52.068V302.966
				C511.134,271.44,489.829,244.665,460.91,236.281z M129.304,77.339h34.712v26.034c-12.149,7.81-23.43,15.62-34.712,24.298V77.339z
				 M415.677,320.322H49.466c-12.149,0-22.563-6.075-27.77-17.356h393.98V320.322z M415.677,285.61H21.697
				C128.436,63.454,397.453,37.42,443.446,33.949l47.729,174.427c-13.017,1.736-34.712,6.942-52.068,23.43
				C425.222,244.824,417.412,263.048,415.677,285.61z M346.253,450.492h-34.712v-26.034h34.712V450.492z"/>
			<path d="M320.219,242.22H146.66c-5.207,0-8.678,3.471-8.678,8.678c0,5.207,3.471,8.678,8.678,8.678h173.559
				c5.207,0,8.678-3.471,8.678-8.678C328.897,245.692,325.426,242.22,320.219,242.22z"/>
			<path d="M398.321,129.407c-5.207,0-8.678,3.471-8.678,8.678s3.471,8.678,8.678,8.678c5.207,0,8.678-3.471,8.678-8.678
				S403.527,129.407,398.321,129.407z"/>
</symbol>
<symbol viewBox="0 0 1024 1024" id="icon-airCondition"><path d="M383.2 941.6c-4 0-6.4-0.8-9.6-2.4-14.4-9.6-82.4-60-25.6-160 15.2-27.2 19.2-48.8 13.6-66.4-6.4-20-27.2-28-27.2-28-9.6-4-14.4-15.2-10.4-24.8 3.2-8 9.6-12.8 17.6-12.8 2.4 0 4.8 0.8 7.2 1.6 3.2 0 36.8 14.4 50.4 50.4 10.4 28.8 4.8 62.4-16.8 100-40 70.4 2.4 101.6 11.2 107.2 8.8 4.8 12 16.8 7.2 26.4-4.8 6.4-12 8.8-17.6 8.8z m129.6-42.4c-4 0-6.4-0.8-9.6-2.4-28.8-16.8-69.6-68.8-24-150.4 13.6-24.8 17.6-44.8 12-60-5.6-17.6-24-24.8-24-24.8-10.4-4-15.2-14.4-11.2-24.8 3.2-8 9.6-12.8 17.6-12.8 2.4 0 4.8 0.8 7.2 1.6 8 3.2 36 16 47.2 48 9.6 27.2 4.8 58.4-15.2 92.8-38.4 68.8 8 96.8 10.4 97.6 4 2.4 7.2 6.4 8.8 11.2 1.6 4.8 0.8 10.4-1.6 15.2-4.8 6.4-12 8.8-17.6 8.8z m-265.6 0c-4 0-6.4-0.8-9.6-2.4-28.8-16.8-69.6-68.8-24-150.4 13.6-24.8 17.6-44.8 12-60-5.6-17.6-24-24.8-24-24.8-10.4-4-15.2-14.4-11.2-24.8 3.2-8 9.6-12.8 17.6-12.8 2.4 0 4.8 0.8 7.2 1.6 8 3.2 36 16.8 47.2 48 9.6 27.2 4 58.4-15.2 93.6-38.4 68.8 8 96.8 10.4 97.6 4 2.4 7.2 6.4 8.8 11.2 1.6 4.8 0.8 10.4-1.6 15.2-4 5.6-12 8-17.6 8z m487.2-71.2c-6.4 0-11.2-2.4-15.2-6.4s-6.4-9.6-6.4-15.2c0-8.8 5.6-16.8 13.6-20.8h0.8v-43.2l-40.8 23.2v0.8c0 6.4-2.4 14.4-10.4 18.4-3.2 2.4-7.2 3.2-11.2 3.2-8 0-15.2-4-18.4-10.4-3.2-5.6-4-11.2-2.4-16.8 1.6-5.6 4.8-10.4 10.4-12.8 3.2-2.4 7.2-3.2 10.4-3.2 4 0 8 0.8 11.2 3.2l36.8-20.8-36-20.8c-4.8 1.6-8.8 2.4-12 2.4-4 0-7.2-0.8-10.4-2.4-9.6-6.4-13.6-20-8-29.6 4-6.4 11.2-10.4 19.2-10.4 4 0 8 0.8 11.2 3.2 6.4 4 10.4 10.4 10.4 18.4v0.8L728 712v-43.2h-0.8c-8-4-13.6-12-13.6-20.8 0-12 9.6-21.6 21.6-21.6 6.4 0 12 2.4 16 6.4s6.4 9.6 6.4 15.2c0 7.2-4 14.4-11.2 18.4H744v41.6l35.2-20v-0.8c0-6.4 2.4-14.4 10.4-18.4 3.2-2.4 7.2-3.2 11.2-3.2 8 0 15.2 4 18.4 10.4 3.2 5.6 4 11.2 2.4 16.8-1.6 5.6-4.8 10.4-10.4 12.8-3.2 2.4-7.2 3.2-10.4 3.2-4 0-8-0.8-11.2-3.2l-36.8 20.8 36 20.8c4.8-1.6 8.8-2.4 12-2.4 4 0 7.2 0.8 10.4 2.4 9.6 6.4 13.6 20 8 29.6-4 6.4-11.2 10.4-19.2 10.4-4 0-8-0.8-11.2-3.2-6.4-4-10.4-10.4-10.4-18.4v-0.8L744 745.6v41.6h0.8c7.2 3.2 11.2 10.4 11.2 18.4 0 12.8-9.6 22.4-21.6 22.4zM152 575.2c-60.8 0-109.6-48.8-109.6-109.6V204.8c0-60.8 48.8-109.6 109.6-109.6h721.6c60.8 0 109.6 48.8 109.6 109.6v260.8c0 60.8-48.8 109.6-109.6 109.6H152z m-11.2-432c-28.8 0-52 24-52 54.4v278.4c0 29.6 23.2 54.4 52 54.4h743.2c28.8 0 52-24 52-54.4V197.6c0-29.6-23.2-54.4-52-54.4H140.8z m21.6 312c-10.4 0-19.2-8.8-19.2-19.2 0-10.4 8.8-19.2 19.2-19.2h682.4c10.4 0 19.2 8.8 19.2 19.2 0 10.4-8.8 19.2-19.2 19.2H162.4z m0-80.8c-10.4 0-19.2-8.8-19.2-19.2S152 336 162.4 336h682.4c10.4 0 19.2 8.8 19.2 19.2 0 10.4-8.8 19.2-19.2 19.2H162.4z" /></symbol>
<symbol viewBox="0 0 315 315" id="icon-cooker">
<path d="m308,0h-301c-3.866,0-7,3.134-7,7v301c0,3.866 3.134,7 7,7h301c3.866,0 7-3.134 7-7v-301c0-3.866-3.134-7-7-7zm-7,301h-287v-287h287v287z"/>
    <circle cx="200.919" cy="282.959" r="8.29"/>
    <circle cx="232.745" cy="282.959" r="8.29"/>
    <circle cx="264.57" cy="282.959" r="8.29"/>
    <path d="m94.313,283.352c35.203,0 63.843-28.64 63.843-63.842 0-35.202-28.64-63.842-63.843-63.842-35.202,0-63.842,28.64-63.842,63.842 0.001,35.202 28.64,63.842 63.842,63.842zm0-113.684c27.483,0 49.843,22.359 49.843,49.842 0,27.482-22.359,49.842-49.843,49.842-27.482,0-49.842-22.359-49.842-49.842 0.001-27.483 22.36-49.842 49.842-49.842z"/>
    <path d="m104.648,135.216c28.554,0 51.783-23.23 51.783-51.784 0-28.554-23.229-51.783-51.783-51.783s-51.784,23.229-51.784,51.783c0,28.553 23.231,51.784 51.784,51.784zm0-89.568c20.834,7.10543e-15 37.783,16.949 37.783,37.783 0,20.834-16.949,37.784-37.783,37.784-20.834,0-37.784-16.95-37.784-37.784 2.84217e-14-20.833 16.95-37.783 37.784-37.783z"/>
    <path d="m232.745,135.216c28.554,0 51.783-23.23 51.783-51.784 0-28.554-23.229-51.783-51.783-51.783s-51.783,23.229-51.783,51.783c0,28.553 23.229,51.784 51.783,51.784zm0-89.568c20.834,7.10543e-15 37.783,16.949 37.783,37.783 0,20.834-16.949,37.784-37.783,37.784s-37.783-16.95-37.783-37.784c0-20.833 16.949-37.783 37.783-37.783z"/>
    <path d="m232.745,262.194c28.554,0 51.783-23.23 51.783-51.783s-23.229-51.784-51.783-51.784-51.783,23.23-51.783,51.784 23.229,51.783 51.783,51.783zm0-89.567c20.834,0 37.783,16.95 37.783,37.784s-16.949,37.783-37.783,37.783-37.783-16.949-37.783-37.783 16.949-37.784 37.783-37.784z"/>
</symbol>
<symbol id="icon-microwave" viewBox="0 0 463 463">
			<path d="M431.5,76h-400C14.131,76,0,90.131,0,107.5v224c0,14.785,10.241,27.216,24,30.591v9.409c0,8.547,6.953,15.5,15.5,15.5h16
				c8.547,0,15.5-6.953,15.5-15.5V363h321v8.5c0,8.547,6.953,15.5,15.5,15.5h16c8.547,0,15.5-6.953,15.5-15.5v-9.409
				c13.759-3.374,24-15.806,24-30.591v-224C463,90.131,448.869,76,431.5,76z M56,371.5c0,0.275-0.224,0.5-0.5,0.5h-16
				c-0.276,0-0.5-0.225-0.5-0.5V363h17V371.5z M31.5,348c-9.098,0-16.5-7.401-16.5-16.5v-224C15,98.401,22.402,91,31.5,91H352v256.5
				c0,0.169,0.014,0.334,0.025,0.5H31.5z M424,371.5c0,0.275-0.224,0.5-0.5,0.5h-16c-0.276,0-0.5-0.225-0.5-0.5V363h17V371.5z
				 M448,331.5c0,9.099-7.402,16.5-16.5,16.5h-64.525c0.011-0.166,0.025-0.331,0.025-0.5V91h64.5c9.098,0,16.5,7.401,16.5,16.5
				V331.5z"/>
			<path d="M327.5,108h-288c-4.142,0-7.5,3.357-7.5,7.5v208c0,4.143,3.358,7.5,7.5,7.5h288c4.142,0,7.5-3.357,7.5-7.5v-208
				C335,111.357,331.642,108,327.5,108z M320,316H47V123h273V316z"/>
			<path d="M415.5,124h-16c-8.547,0-15.5,6.953-15.5,15.5v16c0,8.547,6.953,15.5,15.5,15.5h16c8.547,0,15.5-6.953,15.5-15.5v-16
				C431,130.953,424.047,124,415.5,124z M416,155.5c0,0.275-0.224,0.5-0.5,0.5h-16c-0.276,0-0.5-0.225-0.5-0.5v-16
				c0-0.275,0.224-0.5,0.5-0.5h16c0.276,0,0.5,0.225,0.5,0.5V155.5z"/>
			<path d="M423.5,188h-32c-4.142,0-7.5,3.357-7.5,7.5s3.358,7.5,7.5,7.5h32c4.142,0,7.5-3.357,7.5-7.5S427.642,188,423.5,188z"/>
			<path d="M423.5,252h-32c-4.142,0-7.5,3.357-7.5,7.5s3.358,7.5,7.5,7.5h32c4.142,0,7.5-3.357,7.5-7.5S427.642,252,423.5,252z"/>
			<path d="M423.5,220h-32c-4.142,0-7.5,3.357-7.5,7.5s3.358,7.5,7.5,7.5h32c4.142,0,7.5-3.357,7.5-7.5S427.642,220,423.5,220z"/>
			<path d="M168,240.866c0,13.16,5.269,20.18,9.502,25.819c3.772,5.026,6.498,8.658,6.498,16.814c0,4.143,3.358,7.5,7.5,7.5
				c4.142,0,7.5-3.357,7.5-7.5c0-13.159-5.269-20.179-9.501-25.818c-3.773-5.026-6.499-8.658-6.499-16.815
				c0-8.168,2.727-11.804,6.5-16.835c4.232-5.644,9.5-12.668,9.5-25.836c0-13.173-5.267-20.2-9.498-25.848
				c-3.775-5.036-6.502-8.676-6.502-16.853c0-4.143-3.358-7.5-7.5-7.5c-4.142,0-7.5,3.357-7.5,7.5
				c0,13.174,5.267,20.201,9.499,25.849c3.774,5.036,6.501,8.676,6.501,16.852c0,8.168-2.727,11.804-6.5,16.836
				C173.268,220.676,168,227.699,168,240.866z"/>
			<path d="M208.484,248.358c2.473,0,4.668-1.198,6.036-3.046c5.37-7.161,16.48-22.023,16.48-47.116
				c0-10.194-1.838-19.807-5.463-28.568c-1.584-3.828-5.972-5.648-9.798-4.065c-3.828,1.584-5.646,5.971-4.063,9.798
				c2.869,6.935,4.324,14.617,4.324,22.834c0,20.041-8.375,31.307-13.438,38.059c-0.989,1.271-1.578,2.868-1.578,4.604
				C200.984,245.001,204.342,248.358,208.484,248.358z"/>
			<path d="M148.324,273.877c0.949,0,1.914-0.182,2.845-0.563c3.832-1.573,5.663-5.955,4.09-9.787
				c-2.826-6.884-4.259-14.509-4.259-22.661c0-20.137,8.458-31.415,13.512-38.153c0.138-0.184,0.267-0.374,0.387-0.569
				c1.484-2.41,1.476-5.506-0.008-7.916c-2.17-3.528-6.79-4.628-10.318-2.458c-1.064,0.655-1.908,1.533-2.507,2.537
				c-5.507,7.361-16.066,22.1-16.066,46.559c0,10.116,1.811,19.657,5.383,28.358C142.573,272.123,145.372,273.877,148.324,273.877z"
				/>
</symbol>
<symbol viewBox="-25.67 0 122.88 122.88" id="icon-fridge">
<path d="M6.14,0H65.4c1.69,0,3.23,0.69,4.34,1.8c1.11,1.11,1.8,2.65,1.8,4.34v29.67v73.73c0,1.69-0.69,3.23-1.8,4.34 c-1.11,1.11-2.65,1.8-4.34,1.8h-4.89v2.72c0,2.47-2.02,4.49-4.49,4.49l0,0c-2.47,0-4.49-2.02-4.49-4.49v-2.72H20.17v2.72 c0,2.47-2.02,4.49-4.49,4.49l0,0c-2.47,0-4.49-2.02-4.49-4.49v-2.72H6.14c-1.69,0-3.23-0.69-4.34-1.8c-1.11-1.11-1.8-2.65-1.8-4.34 V35.81V6.14C0,4.45,0.69,2.91,1.8,1.8C2.91,0.69,4.45,0,6.14,0L6.14,0z M10.2,44.89c0-1.34,1.09-2.43,2.43-2.43 c1.34,0,2.43,1.09,2.43,2.43v20.4c0,1.34-1.09,2.43-2.43,2.43c-1.34,0-2.43-1.09-2.43-2.43V44.89L10.2,44.89z M10.2,10.39 c0-1.34,1.09-2.43,2.43-2.43c1.34,0,2.43,1.09,2.43,2.43v15.15c0,1.34-1.09,2.43-2.43,2.43c-1.34,0-2.43-1.09-2.43-2.43V10.39 L10.2,10.39z M4.87,33.37h61.81V6.14c0-0.35-0.14-0.67-0.38-0.9c-0.23-0.23-0.55-0.38-0.9-0.38H6.14c-0.35,0-0.67,0.14-0.9,0.38 c-0.23,0.23-0.38,0.55-0.38,0.9V33.37L4.87,33.37z M66.67,38.24H4.87v71.29c0,0.35,0.14,0.67,0.38,0.9 c0.23,0.23,0.55,0.38,0.9,0.38H65.4c0.35,0,0.67-0.14,0.9-0.38c0.23-0.23,0.38-0.55,0.38-0.9V38.24L66.67,38.24z"/>
</symbol>
<symbol id="icon-kettle" viewBox="0 0 463 463">
	<path d="M442.815,73.155c0.798-3.528-1.036-7.124-4.361-8.548c-0.502-0.215-12.587-5.272-50.917-11.861
		c-2.516-7.517-8.653-13.357-16.523-15.38c-5.132-1.318-10.494-2.535-16.015-3.669v-4.288c0-11.676-8.385-21.457-19.938-23.256
		C308.847,2.07,280.733,0,251.499,0s-57.348,2.07-83.563,6.153c-11.553,1.799-19.938,11.58-19.938,23.256v4.288
		c-5.521,1.134-10.883,2.351-16.016,3.669c-8.973,2.306-15.695,9.573-17.359,18.634H59.499c-21.78,0-39.5,17.72-39.5,39.5v123.26
		c0,20.405,8.747,39.883,23.998,53.439l50.52,44.906c0.048,0.042,0.099,0.078,0.147,0.119c-1.635,44.066-2.332,78.464-2.565,91.976
		c-9.342,3.109-16.099,11.927-16.099,22.299v8c0,12.958,10.542,23.5,23.5,23.5h304c12.958,0,23.5-10.542,23.5-23.5v-8
		c0-10.372-6.758-19.191-16.099-22.299c-0.452-26.123-2.634-130.289-9.982-231.482C432.829,116.368,442.421,74.899,442.815,73.155z
		 M398.639,148.532c-2.364-28.166-5.165-55.469-8.481-80.097c18.782,3.369,30.131,6.214,36.284,7.988
		C423.175,87.955,414.933,113.918,398.639,148.532z M162.999,29.409c0-4.233,3.048-7.781,7.246-8.435
		C195.699,17.01,223.037,15,251.499,15s55.801,2.01,81.254,5.975c4.198,0.654,7.246,4.201,7.246,8.435v1.509
		C312.922,26.419,282.493,24,251.499,24c-30.993,0-61.422,2.419-88.5,6.918V29.409z M135.717,51.895
		C168.083,43.579,209.202,39,251.499,39s83.417,4.579,115.781,12.895c3.386,0.87,5.9,3.668,6.408,7.129
		C390.925,176.458,395.16,367.694,395.878,408H107.121c0.717-40.304,4.951-231.529,22.189-348.976
		C129.818,55.563,132.333,52.764,135.717,51.895z M97.372,255.129l-24.834-22.075c-3.52-3.128-5.538-7.623-5.538-12.332V103h41.685
		C103.496,151.203,99.877,205.492,97.372,255.129z M53.962,260.988c-12.051-10.712-18.963-26.104-18.963-42.229V95.5
		c0-13.509,10.99-24.5,24.5-24.5h52.999c-0.733,5.543-1.44,11.216-2.123,17H59.499c-4.143,0-7.5,3.358-7.5,7.5v125.223
		c0,8.99,3.854,17.571,10.573,23.543l33.87,30.107c-0.369,8.006-0.708,15.845-1.021,23.468L53.962,260.988z M411.999,439.5
		c0,4.687-3.813,8.5-8.5,8.5h-304c-4.687,0-8.5-3.813-8.5-8.5v-8c0-4.687,3.813-8.5,8.5-8.5h304c4.687,0,8.5,3.813,8.5,8.5V439.5z"
		/>
	<path d="M251.491,374.998c17.369,0,31.5-14.131,31.5-31.5v-224c0-17.369-14.131-31.5-31.5-31.5s-31.5,14.131-31.5,31.5v224
		C219.991,360.867,234.122,374.998,251.491,374.998z M234.991,119.498c0-9.098,7.402-16.5,16.5-16.5c9.098,0,16.5,7.402,16.5,16.5
		v8.5h-8.5c-4.143,0-7.5,3.358-7.5,7.5s3.357,7.5,7.5,7.5h8.5v17h-8.5c-4.143,0-7.5,3.358-7.5,7.5s3.357,7.5,7.5,7.5h8.5v17h-8.5
		c-4.143,0-7.5,3.358-7.5,7.5s3.357,7.5,7.5,7.5h8.5v17h-8.5c-4.143,0-7.5,3.358-7.5,7.5s3.357,7.5,7.5,7.5h8.5v17h-8.5
		c-4.143,0-7.5,3.358-7.5,7.5s3.357,7.5,7.5,7.5h8.5v17h-8.5c-4.143,0-7.5,3.358-7.5,7.5s3.357,7.5,7.5,7.5h8.5v17h-8.5
		c-4.143,0-7.5,3.358-7.5,7.5s3.357,7.5,7.5,7.5h8.5v8.5c0,9.098-7.402,16.5-16.5,16.5c-9.098,0-16.5-7.402-16.5-16.5V119.498z"/>
</symbol>
<symbol id="icon-tv" viewBox="0 0 393.338 393.338">
<path id="XMLID_169_" d="M72.813,250.348c0-4.418,3.582-8,8-8h1.983c4.418,0,8,3.582,8,8s-3.582,8-8,8h-1.983
	C76.396,258.348,72.813,254.766,72.813,250.348z M80.813,230.268h1.983c4.418,0,8-3.582,8-8s-3.582-8-8-8h-1.983
	c-4.418,0-8,3.582-8,8S76.396,230.268,80.813,230.268z M57.783,230.268h1.983c4.418,0,8-3.582,8-8s-3.582-8-8-8h-1.983
	c-4.418,0-8,3.582-8,8S53.365,230.268,57.783,230.268z M80.813,201.675h1.983c4.418,0,8-3.582,8-8s-3.582-8-8-8h-1.983
	c-4.418,0-8,3.582-8,8S76.396,201.675,80.813,201.675z M73.99,295.106h-7.215v-7.213c0-4.418-3.582-8-8-8s-8,3.582-8,8v7.213h-7.213
	c-4.418,0-8,3.582-8,8s3.582,8,8,8h7.213v7.214c0,4.418,3.582,8,8,8s8-3.582,8-8v-7.214h7.215c4.418,0,8-3.582,8-8
	S78.408,295.106,73.99,295.106z M57.783,258.348h1.983c4.418,0,8-3.582,8-8s-3.582-8-8-8h-1.983c-4.418,0-8,3.582-8,8
	S53.365,258.348,57.783,258.348z M393.338,26.767V256.22c0,4.418-3.582,8-8,8H219.101v27.947h51.435c4.418,0,8,3.582,8,8
	s-3.582,8-8,8h-59.259c-0.058,0.001-0.117,0.002-0.176,0.002s-0.118-0.001-0.176-0.002h-59.256c-4.418,0-8-3.582-8-8s3.582-8,8-8
	h51.432V264.22h-68.161c-4.418,0-8-3.582-8-8s3.582-8,8-8h242.398v-19.907H143.432c-4.418,0-8-3.582-8-8s3.582-8,8-8h233.906V70.672
	H44.867v16.634c0,4.418-3.582,8-8,8s-8-3.582-8-8V26.767c0-4.418,3.582-8,8-8h348.471C389.756,18.767,393.338,22.349,393.338,26.767
	z M377.338,34.767H44.867v19.905h332.471V34.767z M34.754,258.348h1.982c4.418,0,8-3.582,8-8s-3.582-8-8-8h-1.982
	c-4.418,0-8,3.582-8,8S30.336,258.348,34.754,258.348z M49.783,193.675c0,4.418,3.582,8,8,8h1.983c4.418,0,8-3.582,8-8s-3.582-8-8-8
	h-1.983C53.365,185.675,49.783,189.257,49.783,193.675z M34.754,230.268h1.982c4.418,0,8-3.582,8-8s-3.582-8-8-8h-1.982
	c-4.418,0-8,3.582-8,8S30.336,230.268,34.754,230.268z M117.551,112.692v253.879c0,4.418-3.582,8-8,8H8c-4.418,0-8-3.582-8-8
	V112.692c0-4.418,3.582-8,8-8h101.551C113.969,104.692,117.551,108.274,117.551,112.692z M101.551,120.692H16v237.879h85.551
	V120.692z M34.754,201.675h1.982c4.418,0,8-3.582,8-8s-3.582-8-8-8h-1.982c-4.418,0-8,3.582-8,8S30.336,201.675,34.754,201.675z
	 M34.754,149.85h9.917c4.418,0,8-3.582,8-8s-3.582-8-8-8h-9.917c-4.418,0-8,3.582-8,8S30.336,149.85,34.754,149.85z"/>
</symbol>
<symbol id="icon-towel" viewBox="0 0 64 64" enable-background="new 0 0 64 64" xml:space="preserve">
<path d="M63,8.2461004H49.2714996h-0.9937019H11.8491001h-0.2475996H1.0000008c-0.5523,0-1,0.4471998-1,1v6.7802
	c0,0.5527992,0.4477,1,1,1h9.5052996V49.405201c0,0.5527992,0.4477997,1,1,1h5.3857994v4.3096008
	c0,0.007,0.0039005,0.0126991,0.0039005,0.0126991c0,0.0136986-0.0039005,0.0193977-0.0039005,0.0193977
	c0,0.5597,0.4477005,1.007,1,1.007h37.4223022c0.5522995,0,1-0.4473,1-1c0,0-0.0039024-0.0126991-0.0039024-0.0195999
	c0,0,0.0039024-0.0124969,0.0039024-0.0194969V16.4570007H63c0.5522041,0,1-0.4473,1-1.000001V9.2461004
	C64,8.6933002,63.5522041,8.2461004,63,8.2461004z M48.2777977,10.2461004h0.9937019c2.780201,0,5.0419006,2.2606993,5.0419006,5.04
	v23.5879002H18.8910999V15.2861004c0-1.9752007-0.8206997-3.7602005-2.1357994-5.04H48.2777977z M54.3134003,44.6660004H18.8910999
	v-3.7919998h35.4223022V44.6660004z M18.8910999,46.6660004h35.4223022v7.0878983H18.8910999V46.6660004z M2.0000007,10.2461004
	h9.6014996h0.2475996c2.6913004,0,4.8773003,2.1236992,5.0156994,4.7802H2.0000007V10.2461004z M12.5053005,48.405201V17.0263004
	h4.3857994V48.405201H12.5053005z M62,14.4569998h-5.7399025C56.0661011,12.8139,55.3055992,11.3437996,54.1777,10.2461004H62
	V14.4569998z"/>
</symbol>
<symbol id="icon-parking" viewBox="0 0 479 479">
	<path d="M205.624,245.139h34.938c24.986,0,45.314-20.329,45.314-45.314c0-24.987-20.328-45.316-45.314-45.316h-34.938
		c-6.903,0-12.5,5.597-12.5,12.5v65.631C193.124,239.541,198.72,245.139,205.624,245.139z M218.124,179.507h22.438
		c11.201,0,20.314,9.114,20.314,20.316c0,11.201-9.113,20.313-20.314,20.313h-22.438V179.507L218.124,179.507z"/>
		<path d="M146.112,384.048h59.512c6.904,0,12.5-5.597,12.5-12.5V304.65h22.438c57.802,0,104.826-47.024,104.826-104.826
			c0-57.803-47.023-104.828-104.818-104.828l-94.451-0.043c-0.002,0-0.004,0-0.006,0c-3.314,0-6.493,1.316-8.837,3.659
			c-2.345,2.345-3.663,5.524-3.663,8.841v264.096C133.612,378.451,139.208,384.048,146.112,384.048z M158.612,119.958l81.951,0.037
			c44.017,0,79.825,35.811,79.825,79.828c0,44.017-35.81,79.825-79.827,79.825h-34.938c-6.903,0-12.5,5.598-12.5,12.5v66.898
			h-34.512L158.612,119.958L158.612,119.958z"/>
		<path d="M466.5,0h-454C5.597,0,0,5.597,0,12.5v454c0,6.903,5.597,12.5,12.5,12.5h454c6.903,0,12.5-5.597,12.5-12.5v-454
			C479,5.597,473.403,0,466.5,0z M454,454H25V25h429V454z"/>
</symbol>
<symbol id="icon-vacuum" viewBox="0 0 290.626 290.626">
			<path d="M257.813,253.126L257.813,253.126v-18.751h-9.375V51.563C248.438,23.133,225.305,0,196.875,0
				s-51.563,23.133-51.563,51.563v84.375c0,2.583-2.105,4.688-4.688,4.688H109.27c-7.908-2.236-16.242-3.708-24.895-4.327v-14.423
				H42.188v14.063h-9.375C14.719,135.938,0,150.656,0,168.75v60.938c0,12.923,10.514,23.438,23.438,23.438h26.198
				c5.578,13.725,19.036,23.438,34.739,23.438s29.161-9.712,34.739-23.438h40.261c12.923,0,23.438-10.514,23.438-23.438
				c0-24.427-10.233-46.383-27.244-62.902c10.444-4.111,17.869-14.273,17.869-26.161V51.563c0-12.923,10.514-23.438,23.438-23.438
				s23.438,10.514,23.438,23.438v182.813h-9.375v18.75h-32.813v37.5h112.5v-37.5H257.813z M51.563,131.25H75v4.688H51.563V131.25z
				 M84.375,267.188c-15.511,0-28.125-12.614-28.125-28.125s12.614-28.125,28.125-28.125s28.125,12.614,28.125,28.125
				S99.886,267.188,84.375,267.188z M173.438,229.687c0,7.754-6.31,14.063-14.063,14.063h-37.823
				c0.192-1.537,0.323-3.098,0.323-4.688c0-20.677-16.823-37.5-37.5-37.5s-37.5,16.823-37.5,37.5c0,1.589,0.131,3.15,0.323,4.688
				h-23.76c-7.753,0-14.063-6.309-14.063-14.063V168.75c0-12.923,10.514-23.438,23.438-23.438h9.375H75
				C130.2,145.312,173.438,182.376,173.438,229.687z M196.875,18.75c-18.094,0-32.813,14.719-32.813,32.813v89.063
				c0,9.83-7.627,17.827-17.264,18.6c-4.434-3.408-9.206-6.492-14.269-9.225h8.095c7.753,0,14.063-6.309,14.063-14.063V51.563
				c0-23.259,18.928-42.188,42.188-42.188s42.188,18.928,42.188,42.188v182.813h-9.375V51.563
				C229.688,33.469,214.969,18.75,196.875,18.75z M220.313,243.75h28.125v9.375h-28.125V243.75z M281.251,281.25L281.251,281.25
				H187.5V262.5h23.438h46.875h23.438V281.25z"/>
			<rect x="159.375" y="281.25" width="9.375" height="9.375"/>
			<rect x="140.625" y="281.25" width="9.375" height="9.375"/>
			<rect x="121.875" y="281.25" width="9.375" height="9.375"/>
			<rect x="18.75" y="159.375" width="9.375" height="9.375"/>
			<rect x="18.75" y="178.125" width="9.375" height="9.375"/>
			<path d="M84.375,220.313c-10.341,0-18.75,8.409-18.75,18.75s8.409,18.75,18.75,18.75s18.75-8.409,18.75-18.75
				S94.716,220.313,84.375,220.313z M84.375,248.438c-5.17,0-9.375-4.205-9.375-9.375s4.205-9.375,9.375-9.375
				s9.375,4.205,9.375,9.375S89.545,248.438,84.375,248.438z"/>
</symbol>
<symbol id="icon-freeWifi" viewBox="0 0 197.336 197.336">
	<path d="M100.482,127.58c-12.072,0-21.894,9.821-21.894,21.894s9.821,21.894,21.894,21.894s21.894-9.821,21.894-21.894
		S112.554,127.58,100.482,127.58z M100.482,159.367c-5.455,0-9.894-4.438-9.894-9.894s4.438-9.894,9.894-9.894
		s9.894,4.438,9.894,9.894S105.937,159.367,100.482,159.367z"/>
	<path d="M100.482,25.969c-38.874,0-75.932,18.691-99.197,50.014c-1.942,2.614-1.693,6.366,0.821,8.436
		c1.127,0.929,2.479,1.376,3.818,1.376c1.839,0,3.654-0.843,4.831-2.435c21-28.422,54.544-45.391,89.728-45.391
		c33.306,0,65.141,15.206,86.259,40.938c2.014,2.455,5.615,2.869,8.168,0.982l0,0c2.778-2.053,3.236-6.007,1.042-8.675
		C172.566,42.773,137.34,25.969,100.482,25.969z"/>
	<path d="M100.482,59.188c-30.801,0-59.285,15.467-76.195,41.375c-1.811,2.775-1.03,6.493,1.745,8.304
		c2.773,1.812,6.493,1.031,8.304-1.745c14.686-22.5,39.414-35.934,66.146-35.934s51.46,13.433,66.146,35.934
		c1.151,1.763,3.071,2.721,5.03,2.721c1.125,0,2.262-0.315,3.274-0.976c2.775-1.811,3.556-5.529,1.745-8.304
		C159.767,74.655,131.282,59.188,100.482,59.188z"/>
	<path d="M100.482,90.416c-22.669,0-43.752,13.202-53.685,33.58c-1.207,2.414-0.65,5.355,1.356,7.161
		c2.462,2.216,6.256,2.017,8.474-0.446c0.468-0.52,0.828-1.1,1.083-1.711c8.023-16.161,24.773-26.584,42.772-26.584
		c17.979,0,34.714,10.402,42.773,26.585c0.254,0.611,0.614,1.189,1.082,1.709c1.185,1.316,2.82,1.986,4.462,1.986
		c1.43,0,2.865-0.508,4.012-1.54c1.99-1.791,2.556-4.7,1.383-7.106C144.234,103.618,123.151,90.416,100.482,90.416z"/>
</symbol>
<symbol id="icon-gps" viewBox="0 0 512 512" xml:space="preserve">
			<path d="M86.04,298.52c0.853,2.56,4.267,4.267,6.827,4.267c2.56,0,5.973-1.707,6.827-3.413
				c0.853-0.853,40.107-61.44,65.707-117.76c13.653-29.013,21.333-46.08,21.333-76.8c0-50.347-34.987-101.547-93.867-101.547
				C33.987,3.267-1,54.467-1,103.96c0,31.573,8.533,48.64,21.333,76.8C45.933,237.08,86.04,297.667,86.04,298.52z M92.867,20.333
				c47.787,0,76.8,42.667,76.8,84.48c0,27.307-6.827,41.813-19.627,69.12c-18.773,40.96-44.373,83.627-57.173,104.107
				c-11.947-20.48-38.4-63.147-57.173-104.107c-12.8-27.307-19.627-41.813-19.627-69.12C16.067,63,45.08,20.333,92.867,20.333z"/>
			<path d="M92.867,148.333c28.16,0,51.2-23.04,51.2-51.2c0-28.16-23.04-51.2-51.2-51.2c-28.16,0-51.2,23.04-51.2,51.2
				C41.667,125.293,64.707,148.333,92.867,148.333z M92.867,63C111.64,63,127,78.36,127,97.133c0,18.773-15.36,34.133-34.133,34.133
				c-18.773,0-34.133-15.36-34.133-34.133C58.733,78.36,74.093,63,92.867,63z"/>
			<path d="M417.133,173.933c-58.88,0-93.867,51.2-93.867,100.693c0,31.573,8.533,48.64,21.333,76.8
				c25.6,56.32,65.707,116.907,65.707,117.76c0.853,2.56,4.267,4.267,6.827,4.267s5.973-1.707,6.827-3.413
				c0.853-0.853,40.107-61.44,65.707-117.76C503.32,323.267,511,306.2,511,275.48C511,225.133,476.013,173.933,417.133,173.933z
				 M474.307,344.6c-18.773,40.96-44.373,83.627-57.173,104.107c-11.947-20.48-38.4-63.147-57.173-104.107
				c-12.8-27.307-19.627-41.813-19.627-69.12c0-41.813,29.013-84.48,76.8-84.48c47.787,0,76.8,42.667,76.8,84.48
				C493.933,302.787,487.107,317.293,474.307,344.6z"/>
			<path d="M417.133,216.6c-28.16,0-51.2,23.04-51.2,51.2s23.04,51.2,51.2,51.2s51.2-23.04,51.2-51.2S445.293,216.6,417.133,216.6z
				 M417.133,301.933c-18.773,0-34.133-15.36-34.133-34.133c0-18.773,15.36-34.133,34.133-34.133
				c18.773,0,34.133,15.36,34.133,34.133C451.267,286.573,435.907,301.933,417.133,301.933z"/>
			<path d="M417.133,489.667H408.6c-5.12,0-8.533,3.413-8.533,8.533s3.413,8.533,8.533,8.533h8.533c5.12,0,8.533-3.413,8.533-8.533
				S422.253,489.667,417.133,489.667z"/>
			<path d="M326.68,489.667h-16.213c-5.12,0-8.533,3.413-8.533,8.533s3.413,8.533,8.533,8.533h16.213
				c5.12,0,8.533-3.413,8.533-8.533S331.8,489.667,326.68,489.667z"/>
			<path d="M376.173,489.667H359.96c-5.12,0-8.533,3.413-8.533,8.533s3.413,8.533,8.533,8.533h16.213
				c4.267,0,8.533-3.413,8.533-8.533S381.293,489.667,376.173,489.667z"/>
			<path d="M134.68,319c-5.12,0-8.533,3.413-8.533,8.533s3.413,8.533,8.533,8.533h16.213c5.12,0,8.533-3.413,8.533-8.533
				S156.013,319,150.893,319H134.68z"/>
			<path d="M16.92,456.387c4.267,0,7.68-2.56,8.533-5.973c0-4.267,1.707-8.533,4.267-11.947c2.56-4.267,1.707-9.387-2.56-11.947
				c-4.267-2.56-9.387-1.707-11.947,2.56C11.8,434.2,9.24,440.173,8.387,447c-0.853,4.267,2.56,8.533,6.827,9.387
				C16.067,456.387,16.067,456.387,16.92,456.387z"/>
			<path d="M225.133,342.893c3.413,3.413,5.973,6.827,8.533,10.24c1.707,2.56,5.12,4.267,7.68,4.267c0.853,0,2.56,0,3.413-1.707
				c4.267-2.56,5.973-7.68,3.413-11.947c-3.413-5.12-7.68-10.24-12.8-14.507c-3.413-2.56-9.387-1.707-11.947,1.707
				S221.72,340.333,225.133,342.893z"/>
			<path d="M39.96,483.693c-4.267-2.56-6.827-5.12-9.387-9.387c-2.56-4.267-7.68-5.12-11.947-2.56
				c-4.267,2.56-5.12,7.68-2.56,11.947c3.413,5.973,8.533,10.24,13.653,13.653c1.707,0.853,3.413,1.707,5.12,1.707
				c2.56,0,5.12-0.853,7.68-3.413C45.08,491.373,44.227,486.253,39.96,483.693z"/>
			<path d="M174.787,327.533c0,5.12,3.413,8.533,8.533,8.533h16.213c5.12,0,8.533-3.413,8.533-8.533S204.653,319,199.533,319H183.32
				C178.2,319,174.787,322.413,174.787,327.533z"/>
			<path d="M121.88,412.867c0-5.12-3.413-8.533-8.533-8.533H97.133c-5.12,0-8.533,3.413-8.533,8.533c0,5.12,3.413,8.533,8.533,8.533
				h16.213C117.613,421.4,121.88,417.987,121.88,412.867z"/>
			<path d="M64.707,421.4c5.12,0,8.533-3.413,8.533-8.533c0-5.12-3.413-8.533-8.533-8.533h-5.973c-4.267,0-8.533,0.853-12.8,1.707
				c-4.267,0.853-6.827,5.973-5.973,10.24s5.12,6.827,8.533,6.827c0,0,0.853-0.853,1.707-0.853c2.56-0.853,5.973-0.853,8.533-0.853
				H64.707z"/>
			<path d="M220.013,410.307c-0.853-4.267-5.973-7.68-10.24-6.827c-1.707,0.853-4.267,0.853-5.973,0.853h-8.533
				c-5.12,0-8.533,3.413-8.533,8.533c0,5.12,3.413,8.533,8.533,8.533h8.533c2.56,0,5.973,0,9.387-0.853
				C217.453,419.693,220.867,414.573,220.013,410.307z"/>
			<path d="M246.467,372.76c-4.267-1.707-9.387,1.707-10.24,5.973s-2.56,8.533-5.12,11.947s-1.707,9.387,1.707,11.947
				c1.707,0.853,3.413,1.707,5.12,1.707c2.56,0,5.12-1.707,5.973-3.413c4.267-5.973,6.827-11.947,8.533-17.92
				C254.147,378.733,250.733,373.613,246.467,372.76z"/>
			<path d="M170.52,412.867c0-5.12-3.413-8.533-8.533-8.533h-16.213c-5.12,0-8.533,3.413-8.533,8.533
				c0,5.12,3.413,8.533,8.533,8.533h16.213C167.107,421.4,170.52,417.987,170.52,412.867z"/>
			<path d="M229.4,489.667h-16.213c-5.12,0-8.533,3.413-8.533,8.533s3.413,8.533,8.533,8.533H229.4c4.267,0,8.533-3.413,8.533-8.533
				S234.52,489.667,229.4,489.667z"/>
			<path d="M179.907,489.667h-16.213c-5.12,0-8.533,3.413-8.533,8.533s3.413,8.533,8.533,8.533h16.213
				c5.12,0,8.533-3.413,8.533-8.533S185.027,489.667,179.907,489.667z"/>
			<path d="M131.267,489.667h-16.213c-5.12,0-8.533,3.413-8.533,8.533s3.413,8.533,8.533,8.533h16.213
				c4.267,0,8.533-3.413,8.533-8.533S136.387,489.667,131.267,489.667z"/>
			<path d="M81.773,489.667H65.56c-5.12,0-8.533,3.413-8.533,8.533s3.413,8.533,8.533,8.533h17.067c4.267,0,7.68-3.413,7.68-8.533
				S86.893,489.667,81.773,489.667z"/>
			<path d="M278.04,489.667h-16.213c-5.12,0-8.533,3.413-8.533,8.533s3.413,8.533,8.533,8.533h16.213
				c5.12,0,8.533-3.413,8.533-8.533S283.16,489.667,278.04,489.667z"/>
			<path d="M92.867,319c-5.12,0-8.533,3.413-8.533,8.533s3.413,8.533,8.533,8.533h8.533c5.12,0,8.533-3.413,8.533-8.533
				S106.52,319,101.4,319H92.867z"/>
</symbol>
<symbol id="icon-images" viewBox="0 0 36 32">
<path d="M34 4h-2v-2c0-1.1-0.9-2-2-2h-28c-1.1 0-2 0.9-2 2v24c0 1.1 0.9 2 2 2h2v2c0 1.1 0.9 2 2 2h28c1.1 0 2-0.9 2-2v-24c0-1.1-0.9-2-2-2zM4 6v20h-1.996c-0.001-0.001-0.003-0.002-0.004-0.004v-23.993c0.001-0.001 0.002-0.003 0.004-0.004h27.993c0.001 0.001 0.003 0.002 0.004 0.004v1.996h-24c-1.1 0-2 0.9-2 2v0zM34 29.996c-0.001 0.001-0.002 0.003-0.004 0.004h-27.993c-0.001-0.001-0.003-0.002-0.004-0.004v-23.993c0.001-0.001 0.002-0.003 0.004-0.004h27.993c0.001 0.001 0.003 0.002 0.004 0.004v23.993z"></path>
<path d="M30 11c0 1.657-1.343 3-3 3s-3-1.343-3-3 1.343-3 3-3 3 1.343 3 3z"></path>
<path d="M32 28h-24v-4l7-12 8 10h2l7-6z"></path>
</symbol>
<symbol id="icon-whatsapp" viewBox="0 0 32 32">
<path d="M27.281 4.65c-2.994-3-6.975-4.65-11.219-4.65-8.738 0-15.85 7.112-15.85 15.856 0 2.794 0.731 5.525 2.119 7.925l-2.25 8.219 8.406-2.206c2.319 1.262 4.925 1.931 7.575 1.931h0.006c0 0 0 0 0 0 8.738 0 15.856-7.113 15.856-15.856 0-4.238-1.65-8.219-4.644-11.219zM16.069 29.050v0c-2.369 0-4.688-0.637-6.713-1.837l-0.481-0.288-4.987 1.306 1.331-4.863-0.313-0.5c-1.325-2.094-2.019-4.519-2.019-7.012 0-7.269 5.912-13.181 13.188-13.181 3.519 0 6.831 1.375 9.319 3.862 2.488 2.494 3.856 5.8 3.856 9.325-0.006 7.275-5.919 13.188-13.181 13.188zM23.294 19.175c-0.394-0.2-2.344-1.156-2.706-1.288s-0.625-0.2-0.894 0.2c-0.262 0.394-1.025 1.288-1.256 1.556-0.231 0.262-0.462 0.3-0.856 0.1s-1.675-0.619-3.188-1.969c-1.175-1.050-1.975-2.35-2.206-2.744s-0.025-0.613 0.175-0.806c0.181-0.175 0.394-0.463 0.594-0.694s0.262-0.394 0.394-0.662c0.131-0.262 0.069-0.494-0.031-0.694s-0.894-2.15-1.219-2.944c-0.319-0.775-0.65-0.669-0.894-0.681-0.231-0.012-0.494-0.012-0.756-0.012s-0.694 0.1-1.056 0.494c-0.363 0.394-1.387 1.356-1.387 3.306s1.419 3.831 1.619 4.1c0.2 0.262 2.794 4.269 6.769 5.981 0.944 0.406 1.681 0.65 2.256 0.837 0.95 0.3 1.813 0.256 2.494 0.156 0.762-0.113 2.344-0.956 2.675-1.881s0.331-1.719 0.231-1.881c-0.094-0.175-0.356-0.275-0.756-0.475z"></path>
</symbol>
<symbol id="icon-heart" viewBox="0 0 32 32">
<path d="M23.6 2c-3.363 0-6.258 2.736-7.599 5.594-1.342-2.858-4.237-5.594-7.601-5.594-4.637 0-8.4 3.764-8.4 8.401 0 9.433 9.516 11.906 16.001 21.232 6.13-9.268 15.999-12.1 15.999-21.232 0-4.637-3.763-8.401-8.4-8.401z"></path>
</symbol>
<symbol id="icon-cancel" viewBox="0 0 32 32">
<path d="M16 0c-8.837 0-16 7.163-16 16s7.163 16 16 16 16-7.163 16-16-7.163-16-16-16zM16 29c-7.18 0-13-5.82-13-13s5.82-13 13-13 13 5.82 13 13-5.82 13-13 13z"></path>
<path d="M21 8l-5 5-5-5-3 3 5 5-5 5 3 3 5-5 5 5 3-3-5-5 5-5z"></path>
</symbol>
<symbol id="icon-location2" viewBox="0 0 32 32">
<path d="M16 0c-5.523 0-10 4.477-10 10 0 10 10 22 10 22s10-12 10-22c0-5.523-4.477-10-10-10zM16 16.125c-3.383 0-6.125-2.742-6.125-6.125s2.742-6.125 6.125-6.125 6.125 2.742 6.125 6.125-2.742 6.125-6.125 6.125zM12.125 10c0-2.14 1.735-3.875 3.875-3.875s3.875 1.735 3.875 3.875c0 2.14-1.735 3.875-3.875 3.875s-3.875-1.735-3.875-3.875z"></path>
</symbol>
<symbol id="icon-compass" viewBox="0 0 32 32">
<path d="M17 32c-0.072 0-0.144-0.008-0.217-0.024-0.458-0.102-0.783-0.507-0.783-0.976v-15h-15c-0.469 0-0.875-0.326-0.976-0.783s0.129-0.925 0.553-1.123l30-14c0.381-0.178 0.833-0.098 1.13 0.199s0.377 0.749 0.199 1.13l-14 30c-0.167 0.358-0.524 0.577-0.906 0.577zM5.508 14h11.492c0.552 0 1 0.448 1 1v11.492l10.931-23.423-23.423 10.931z"></path>
</symbol>
<symbol id="icon-messenger" viewBox="0 0 32 32">
<path  d="M0 15.52c0-8.92 6.987-15.52 16-15.52s16 6.6 16 15.52-6.987 15.52-16 15.52c-1.613 0-3.173-0.213-4.627-0.613-0.1-0.028-0.214-0.044-0.333-0.044-0.188 0-0.367 0.041-0.529 0.114l0.008-0.003-3.187 1.4c-0.153 0.070-0.332 0.111-0.521 0.111-0.694 0-1.259-0.553-1.279-1.242l-0-0.002-0.093-2.853c-0.016-0.361-0.177-0.681-0.426-0.906l-0.001-0.001c-3.085-2.791-5.015-6.808-5.015-11.277 0-0.071 0.001-0.143 0.001-0.214l-0 0.011zM11.093 12.6l-4.693 7.467c-0.467 0.707 0.427 1.52 1.093 1l5.053-3.827c0.347-0.267 0.8-0.267 1.16 0l3.733 2.8c1.12 0.84 2.72 0.533 3.467-0.64l4.693-7.467c0.467-0.707-0.427-1.507-1.093-1l-5.053 3.827c-0.333 0.267-0.8 0.267-1.147 0l-3.733-2.8c-0.397-0.303-0.901-0.485-1.447-0.485-0.853 0-1.602 0.445-2.028 1.115l-0.006 0.010z"></path>
</symbol>
<symbol id="icon-arrow-right" viewBox="0 0 32 32">
<path d="M19.414 27.414l10-10c0.781-0.781 0.781-2.047 0-2.828l-10-10c-0.781-0.781-2.047-0.781-2.828 0s-0.781 2.047 0 2.828l6.586 6.586h-19.172c-1.105 0-2 0.895-2 2s0.895 2 2 2h19.172l-6.586 6.586c-0.39 0.39-0.586 0.902-0.586 1.414s0.195 1.024 0.586 1.414c0.781 0.781 2.047 0.781 2.828 0z"></path>
</symbol>
<symbol id="icon-arrow-left" viewBox="0 0 32 32">
<path d="M12.586 27.414l-10-10c-0.781-0.781-0.781-2.047 0-2.828l10-10c0.781-0.781 2.047-0.781 2.828 0s0.781 2.047 0 2.828l-6.586 6.586h19.172c1.105 0 2 0.895 2 2s-0.895 2-2 2h-19.172l6.586 6.586c0.39 0.39 0.586 0.902 0.586 1.414s-0.195 1.024-0.586 1.414c-0.781 0.781-2.047 0.781-2.828 0z"></path>
</symbol>
<symbol  id="icon-moon" viewBox="0 0 512 512">
		<path d="M339.08,374.03c-22.133-35.317-33.832-76.131-33.832-118.03s11.699-82.714,33.832-118.03
			c21.545-34.38,52.024-62.245,88.14-80.584l29.316-14.886L427.22,27.612C391.138,9.291,352.191,0,311.464,0
			c-68.38,0-132.667,26.628-181.02,74.98C82.093,123.333,55.464,187.62,55.464,256s26.63,132.667,74.98,181.02
			c48.353,48.352,112.64,74.98,181.02,74.98c40.729,0,79.674-9.291,115.755-27.612l29.316-14.887l-29.316-14.886
			C391.103,436.276,360.625,408.41,339.08,374.03z M311.464,478.609c-122.746,0-222.609-99.862-222.609-222.609
			S188.718,33.391,311.464,33.391c24.642,0,48.525,3.906,71.335,11.642c-28.772,19.81-53.319,45.373-72.014,75.204
			c-25.468,40.637-38.929,87.583-38.929,135.762s13.461,95.125,38.929,135.762c18.695,29.831,43.241,55.395,72.014,75.204
			C359.988,474.703,336.106,478.609,311.464,478.609z"/>
</symbol>
<symbol id="icon-sun" fill="none" viewBox="0 0 24 24">
<path d="M5 12H3M12 5V3M21 12H19M12 21V19M16.9496 16.9498L18.3638 18.364M5.63602 5.63608L7.05023 7.05029M16.9496 7.0502L18.3638 5.63599M5.63602 18.3639L7.05023 16.9497M15 12C15 13.6569 13.6569 15 12 15C10.3431 15 9 13.6569 9 12C9 10.3431 10.3431 9 12 9C13.6569 9 15 10.3431 15 12Z" stroke="#000000" stroke-width="2" stroke-linecap="round" stroke-linejoin="round"/>
</symbol>
<symbol id="icon-circleUp" viewBox="0 0 32 32">
<path d="M0 16c0 8.837 7.163 16 16 16s16-7.163 16-16-7.163-16-16-16-16 7.163-16 16zM29 16c0 7.18-5.82 13-13 13s-13-5.82-13-13 5.82-13 13-13 13 5.82 13 13z"></path>
<path d="M22.086 20.914l2.829-2.829-8.914-8.914-8.914 8.914 2.828 2.828 6.086-6.086z"></path>
</symbol>
<symbol id="icon-bubble" viewBox="0 0 32 32">
<path d="M16 2c8.837 0 16 5.82 16 13s-7.163 13-16 13c-0.849 0-1.682-0.054-2.495-0.158-3.437 3.437-7.539 4.053-11.505 4.144v-0.841c2.142-1.049 4-2.961 4-5.145 0-0.305-0.024-0.604-0.068-0.897-3.619-2.383-5.932-6.024-5.932-10.103 0-7.18 7.163-13 16-13z"></path>
</symbol>
<symbol id="icon-user" viewBox="0 0 32 32">
<path d="M18 22.082v-1.649c2.203-1.241 4-4.337 4-7.432 0-4.971 0-9-6-9s-6 4.029-6 9c0 3.096 1.797 6.191 4 7.432v1.649c-6.784 0.555-12 3.888-12 7.918h28c0-4.030-5.216-7.364-12-7.918z"></path>
</symbol>
<symbol id="icon-takingOff" viewBox="0 0 360.031 360.031">

			<path d="M356.354,82.579l-0.774-0.688c-6.684-4.678-16.201-7.14-27.508-7.14c-17.973,0-36.587,6.095-44.982,11.812l-66.16,45.171
				L87.958,159.128c-1.129,0.246-2.177,0.688-3.134,1.339c-2.504,1.735-3.948,4.687-3.783,7.719
				c0.258,4.354,3.585,7.815,7.878,8.214l54.542,5.492l-53.164,36.291c-15.829-7.267-30.856-14.316-44.679-20.934
				c-21.422-10.268-35.407-12.075-41.979-5.5c-6.842,6.846-2.384,18.543,0.057,22.109l51.212,66.396
				c1.723,2.516,3.702,3.957,6.077,4.39c3.942,0.678,7.365-1.682,10.932-4.21l12.967-8.935l72.037-34.979l-10.542,37.65
				c-1.156,4.173,0.862,8.503,4.804,10.322c1.12,0.517,2.381,0.786,3.627,0.786c1.778,0,3.48-0.528,4.963-1.519
				c0.958-0.643,1.726-1.447,2.366-2.42l41.22-62.643l25.214-29.501l111.81-76.333c1.712-1.162,3.381-2.234,5.056-3.315
				c3.855-2.459,7.5-4.792,10.125-7.44C361.213,96.477,361.537,90.193,356.354,82.579z"/>

</symbol>
<symbol id="icon-landing" viewBox="0 0 361.228 361.228">
			<path d="M12.348,132.041c-0.012-0.001-0.023-0.003-0.036-0.005c-4.478-0.737-8.776,2.086-9.873,6.494
				c-1.102,4.419,1.384,8.941,5.706,10.379l121.85,40.542l-40.533,16.141c-2.944,1.173-4.746,4.165-4.404,7.314
				c0.34,3.151,2.741,5.688,5.87,6.203l26.57,4.373c0.763,0.125,1.541,0.125,2.304-0.002l100.975-16.795l97.254,15.842
				c37.176,5.542,42.321-7.729,43.012-11.931c0.537-3.256,0.166-8.438-4.641-14.626c-4.875-6.279-13.269-12.348-25.652-18.553
				c-4.135-2.072-6.104-3.632-8.188-5.284c-7.334-5.807-12.791-9.106-47.809-14.871L83.206,125.736L50.492,57.958
				c-1.234-2.556-3.634-4.351-6.436-4.812l-12.517-2.061c-2.577-0.424-5.208,0.329-7.168,2.053
				c-1.962,1.724-3.048,4.236-2.958,6.845l2.525,74.013L12.348,132.041z"/>
			<path d="M342.707,277.051H16.604C7.434,277.051,0,284.484,0,293.654s7.434,16.604,16.604,16.604h326.103
				c9.17,0,16.605-7.436,16.605-16.604S351.877,277.051,342.707,277.051z"/>
</symbol>
<symbol id="icon-chat" viewBox="0 0 36 32">
<path d="M34 28.161c0 1.422 0.813 2.653 2 3.256v0.498c-0.332 0.045-0.671 0.070-1.016 0.070-2.125 0-4.042-0.892-5.398-2.321-0.819 0.218-1.688 0.336-2.587 0.336-4.971 0-9-3.582-9-8s4.029-8 9-8c4.971 0 9 3.582 9 8 0 1.73-0.618 3.331-1.667 4.64-0.213 0.463-0.333 0.979-0.333 1.522zM7.209 6.912c-2.069 1.681-3.209 3.843-3.209 6.088 0 1.259 0.35 2.481 1.039 3.63 0.711 1.185 1.781 2.268 3.093 3.133 0.949 0.625 1.587 1.623 1.755 2.747 0.056 0.375 0.091 0.753 0.105 1.129 0.233-0.194 0.461-0.401 0.684-0.624 0.755-0.755 1.774-1.172 2.828-1.172 0.168 0 0.336 0.011 0.505 0.032 0.655 0.083 1.323 0.125 1.987 0.126v4c-0.848-0-1.68-0.054-2.492-0.158-3.437 3.437-7.539 4.053-11.505 4.144v-0.841c2.142-1.049 4-2.961 4-5.145 0-0.305-0.024-0.604-0.068-0.897-3.619-2.383-5.932-6.024-5.932-10.103 0-7.18 7.163-13 16-13 8.702 0 15.781 5.644 15.995 12.672-1.284-0.572-2.683-0.919-4.133-1.018-0.36-1.752-1.419-3.401-3.070-4.742-1.104-0.897-2.404-1.606-3.863-2.108-1.553-0.534-3.211-0.804-4.928-0.804s-3.375 0.271-4.928 0.804c-1.46 0.502-2.76 1.211-3.863 2.108z"></path>
</symbol>
<symbol id="icon-sphere" viewBox="0 0 32 32">
<path d="M15 2c-8.284 0-15 6.716-15 15s6.716 15 15 15c8.284 0 15-6.716 15-15s-6.716-15-15-15zM23.487 22c0.268-1.264 0.437-2.606 0.492-4h3.983c-0.104 1.381-0.426 2.722-0.959 4h-3.516zM6.513 12c-0.268 1.264-0.437 2.606-0.492 4h-3.983c0.104-1.381 0.426-2.722 0.959-4h3.516zM21.439 12c0.3 1.28 0.481 2.62 0.54 4h-5.979v-4h5.439zM16 10v-5.854c0.456 0.133 0.908 0.355 1.351 0.668 0.831 0.586 1.625 1.488 2.298 2.609 0.465 0.775 0.867 1.638 1.203 2.578h-4.852zM10.351 7.422c0.673-1.121 1.467-2.023 2.298-2.609 0.443-0.313 0.895-0.535 1.351-0.668v5.854h-4.852c0.336-0.94 0.738-1.803 1.203-2.578zM14 12v4h-5.979c0.059-1.38 0.24-2.72 0.54-4h5.439zM2.997 22c-0.533-1.278-0.854-2.619-0.959-4h3.983c0.055 1.394 0.224 2.736 0.492 4h-3.516zM8.021 18h5.979v4h-5.439c-0.3-1.28-0.481-2.62-0.54-4zM14 24v5.854c-0.456-0.133-0.908-0.355-1.351-0.668-0.831-0.586-1.625-1.488-2.298-2.609-0.465-0.775-0.867-1.638-1.203-2.578h4.852zM19.649 26.578c-0.673 1.121-1.467 2.023-2.298 2.609-0.443 0.312-0.895 0.535-1.351 0.668v-5.854h4.852c-0.336 0.94-0.738 1.802-1.203 2.578zM16 22v-4h5.979c-0.059 1.38-0.24 2.72-0.54 4h-5.439zM23.98 16c-0.055-1.394-0.224-2.736-0.492-4h3.516c0.533 1.278 0.855 2.619 0.959 4h-3.983zM25.958 10h-2.997c-0.582-1.836-1.387-3.447-2.354-4.732 1.329 0.636 2.533 1.488 3.585 2.54 0.671 0.671 1.261 1.404 1.766 2.192zM5.808 7.808c1.052-1.052 2.256-1.904 3.585-2.54-0.967 1.285-1.771 2.896-2.354 4.732h-2.997c0.504-0.788 1.094-1.521 1.766-2.192zM4.042 24h2.997c0.583 1.836 1.387 3.447 2.354 4.732-1.329-0.636-2.533-1.488-3.585-2.54-0.671-0.671-1.261-1.404-1.766-2.192zM24.192 26.192c-1.052 1.052-2.256 1.904-3.585 2.54 0.967-1.285 1.771-2.896 2.354-4.732h2.997c-0.504 0.788-1.094 1.521-1.766 2.192z"></path>
</symbol>
</defs>
</svg>
