<?xml version="1.0" standalone="no"?>
<!DOCTYPE svg PUBLIC "-//W3C//DTD SVG 20010904//EN"
 "http://www.w3.org/TR/2001/REC-SVG-20010904/DTD/svg10.dtd">
<svg version="1.0" xmlns="http://www.w3.org/2000/svg"
 width="1940.000000pt" height="1940.000000pt" viewBox="0 0 1940.000000 1940.000000"
 preserveAspectRatio="xMidYMid meet">
<metadata>
Created by potrace 1.14, written by Peter Selinger 2001-2017
</metadata>
<g transform="translate(0.000000,1940.000000) scale(0.100000,-0.100000)"
fill="#000000" stroke="none">
<path d="M10 9705 l0 -9695 9695 0 9695 0 0 9695 0 9695 -9695 0 -9695 0 0
-9695z m8233 4896 c83 -1 126 -5 122 -11 -3 -5 -2 -10 4 -10 5 0 13 5 16 10 3
6 18 10 32 10 20 0 24 -4 19 -17 -6 -17 -5 -17 8 0 10 13 27 17 67 16 52 -1
49 -2 -71 -34 -732 -194 -1423 -557 -2000 -1051 -149 -128 -420 -398 -544
-544 -439 -514 -771 -1107 -974 -1740 -27 -85 -58 -187 -68 -227 -10 -39 -21
-70 -25 -67 -4 2 -11 -1 -15 -7 -4 -8 -3 -9 4 -5 15 9 15 -7 -2 -69 -14 -48
-14 -45 -15 107 -1 116 2 158 12 162 10 5 10 7 0 12 -10 4 -13 42 -13 139 0
130 1 137 39 243 83 234 225 537 367 783 219 382 471 713 788 1037 531 542
1167 960 1849 1215 91 33 111 38 119 26 8 -11 9 -11 4 3 -6 20 7 24 88 21 34
-1 119 -2 189 -2z m3060 -15 c6 -8 10 -8 14 2 3 8 26 12 63 12 45 0 87 -10
177 -44 690 -257 1325 -673 1859 -1218 456 -466 801 -979 1056 -1573 36 -82
79 -192 98 -243 l33 -92 -23 -20 c-25 -22 -20 -41 5 -20 12 10 15 10 15 -1 5
-145 -3 -365 -13 -372 -9 -7 -9 -10 1 -14 8 -3 12 -29 11 -81 l-1 -77 -33 125
c-319 1203 -1071 2247 -2111 2933 -444 292 -965 525 -1484 662 l-125 33 114 1
c103 1 115 -1 131 -19 11 -13 21 -17 25 -10 3 5 1 10 -4 10 -6 0 -11 5 -11 10
0 6 14 10 30 10 17 0 30 -4 30 -10 0 -5 9 -10 20 -10 11 0 20 6 20 13 0 15 91
10 103 -7z m-1403 -2651 c321 -49 610 -213 812 -462 55 -67 138 -195 138 -212
0 -5 -44 -11 -97 -13 -160 -9 -250 -51 -427 -200 -270 -227 -403 -314 -523
-338 -36 -8 -109 -11 -193 -8 l-135 4 72 -22 c131 -40 255 -57 367 -51 192 11
292 61 516 256 245 214 414 291 640 291 121 0 189 -17 315 -80 89 -44 260
-159 250 -168 -2 -2 -63 4 -137 14 -74 10 -197 18 -278 19 -227 0 -268 -18
-500 -230 -144 -131 -293 -248 -374 -294 -135 -77 -323 -97 -490 -52 -168 45
-375 165 -549 318 l-37 32 46 43 c85 79 177 147 248 185 66 35 77 38 156 38
101 0 153 -20 267 -102 40 -28 73 -50 73 -46 0 26 -76 149 -122 199 -83 88
-134 109 -268 109 -89 0 -117 -4 -188 -29 -104 -35 -242 -106 -441 -226 -322
-193 -445 -256 -561 -287 -91 -24 -290 -24 -385 1 -75 19 -255 101 -293 132
-23 19 -22 19 100 11 203 -13 316 4 459 69 l76 35 26 103 c126 501 543 881
1052 961 110 18 272 18 385 0z m-1869 -2254 c43 -43 41 -101 -5 -147 -42 -42
-82 -45 -125 -8 -75 63 -35 184 61 184 30 0 46 -7 69 -29z m2276 -525 c112
-291 202 -509 215 -523 12 -13 46 -31 76 -39 49 -14 53 -18 50 -42 l-3 -27
-230 0 -230 0 -3 24 c-4 27 12 41 49 41 48 0 89 20 89 43 0 12 -21 79 -47 150
l-48 127 -192 0 -193 0 -16 -37 c-8 -21 -27 -78 -41 -126 -36 -125 -31 -132
110 -162 22 -4 27 -11 27 -35 l0 -30 -211 0 -210 0 3 31 c3 29 8 33 51 44 50
13 90 43 112 86 11 21 352 889 378 962 5 14 15 17 39 15 l32 -3 193 -499z
m-7422 446 c120 -55 169 -159 134 -285 -20 -72 -124 -157 -221 -181 -39 -9
-35 -22 10 -29 65 -9 148 -46 195 -87 62 -55 87 -110 87 -191 0 -144 -102
-253 -268 -288 -32 -7 -168 -11 -337 -11 l-285 0 0 24 c0 20 6 24 40 30 56 9
86 25 99 53 17 36 15 849 -2 883 -14 29 -70 60 -109 60 -23 0 -28 4 -28 26 l0
25 318 -3 c307 -3 319 -4 367 -26z m4585 -182 l0 -120 110 0 110 0 0 -40 0
-40 -110 0 -110 0 0 -252 c1 -316 8 -344 95 -358 17 -3 56 -3 88 0 l58 6 -3
-30 c-3 -28 -8 -32 -78 -54 -56 -18 -92 -23 -142 -20 -79 4 -113 24 -143 84
-18 36 -20 63 -23 332 l-4 292 -69 0 -70 0 3 38 3 37 73 3 72 3 0 119 0 120
70 0 70 0 0 -120z m5818 -7 l3 -123 109 0 110 0 0 -35 0 -35 -110 0 -110 0 0
-260 c0 -348 3 -355 158 -352 80 1 82 1 82 -22 0 -60 -251 -99 -317 -50 -15
12 -37 36 -48 55 -19 32 -20 55 -23 332 l-3 297 -70 0 -70 0 3 36 3 37 70 1
70 1 3 123 3 123 67 -3 67 -3 3 -122z m3692 -3 l0 -120 110 0 110 0 0 -35 0
-35 -110 0 -110 0 0 -252 c0 -145 5 -269 11 -291 16 -57 47 -72 146 -70 81 2
83 2 83 -21 0 -59 -250 -99 -317 -50 -15 11 -37 38 -48 60 -18 36 -20 63 -23
332 l-4 292 -64 0 -64 0 0 35 0 34 68 3 67 3 3 118 3 117 69 0 70 0 0 -120z
m-13257 -122 c96 -42 150 -133 164 -280 l6 -68 -258 0 -258 0 6 -75 c13 -172
107 -274 253 -275 77 0 136 29 183 91 38 50 52 57 71 34 29 -35 -96 -158 -192
-189 -138 -44 -309 6 -388 116 -67 92 -98 260 -70 379 27 115 105 221 195 264
83 39 201 40 288 3z m819 10 c43 -22 61 -105 33 -157 -25 -50 -90 -57 -132
-15 -22 22 -24 31 -19 65 5 31 3 39 -9 39 -26 0 -78 -30 -117 -68 l-38 -36 0
-248 c0 -298 -6 -284 130 -301 8 -1 16 -12 18 -25 l3 -22 -205 0 -206 0 0 25
c0 22 4 25 33 25 18 0 43 7 55 16 22 15 22 17 22 295 0 173 -4 288 -10 300
-12 22 -61 49 -90 49 -14 0 -20 6 -20 24 0 26 -3 25 230 39 l35 2 5 -58 5 -58
35 36 c74 78 175 108 242 73z m523 7 c36 -8 112 -14 188 -15 l127 0 0 -35 0
-35 -90 0 -89 0 24 -49 c32 -63 34 -147 4 -208 -43 -89 -147 -143 -273 -143
-90 0 -129 -23 -124 -73 6 -56 33 -65 222 -76 201 -12 240 -26 294 -105 28
-42 32 -57 32 -112 0 -111 -41 -175 -143 -225 -80 -37 -180 -53 -302 -46 -120
7 -193 27 -239 67 -45 40 -59 78 -54 145 4 46 10 62 38 90 33 34 103 65 146
65 40 0 35 17 -10 34 -65 25 -91 58 -91 116 0 40 5 54 30 80 17 18 43 39 60
47 l30 16 -25 16 c-14 8 -46 36 -71 61 -135 132 -60 342 138 389 57 13 111 12
178 -4z m886 -8 c43 -18 87 -62 108 -107 14 -30 16 -72 13 -283 -2 -253 1
-276 37 -304 9 -7 33 -13 54 -13 36 0 38 -2 35 -27 -3 -25 -10 -30 -58 -42
-74 -19 -124 -9 -167 34 -18 18 -33 40 -33 49 0 22 -8 20 -46 -14 -58 -50
-113 -73 -191 -78 -90 -6 -147 18 -189 80 -25 35 -29 51 -29 107 0 54 5 75 27
112 33 55 80 83 243 140 181 63 175 58 175 130 0 73 -17 116 -59 152 -27 22
-42 27 -87 27 -30 0 -69 -7 -85 -16 -26 -13 -30 -19 -25 -45 3 -16 8 -42 11
-57 12 -62 -75 -114 -130 -78 -26 17 -41 70 -30 105 17 54 85 106 180 138 50
16 198 11 246 -10z m930 11 c55 -18 86 -45 111 -96 22 -45 23 -60 28 -313 6
-299 6 -299 78 -316 27 -6 38 -15 40 -31 l3 -22 -190 0 -191 0 0 24 c0 20 6
24 41 29 73 10 74 11 77 253 4 245 -5 308 -46 347 -56 54 -116 56 -205 9 -84
-45 -87 -55 -87 -316 0 -137 4 -235 10 -247 12 -22 61 -49 90 -49 15 0 20 -6
20 -25 l0 -25 -191 0 -190 0 3 22 c2 18 12 24 41 29 73 12 72 8 75 307 3 266
3 268 -20 302 -16 24 -35 38 -61 44 -29 8 -37 14 -37 32 0 21 6 23 73 28 39 3
97 7 127 8 l55 3 5 -57 5 -57 60 50 c87 72 189 97 276 67z m1995 -7 c45 -20
83 -65 104 -121 10 -25 15 -113 18 -298 4 -258 4 -263 26 -277 12 -8 37 -18
55 -21 27 -6 32 -10 29 -33 l-3 -26 -187 -3 -188 -2 0 28 c0 27 4 30 41 35 73
10 74 11 77 253 4 259 -4 310 -54 353 -29 26 -43 31 -87 31 -64 0 -124 -26
-160 -69 l-27 -33 0 -249 c0 -248 0 -249 23 -264 13 -8 37 -18 55 -21 27 -6
32 -11 32 -35 l0 -29 -137 0 c-76 0 -162 3 -191 7 -46 5 -53 9 -50 27 2 15 14
22 43 28 75 15 75 17 75 312 0 241 -2 263 -20 293 -13 22 -32 36 -60 44 -31
10 -40 17 -40 35 0 25 4 25 182 40 86 6 84 8 90 -75 l3 -34 55 47 c30 26 75
53 100 61 65 20 147 18 196 -4z m2364 0 c140 -53 230 -203 230 -381 0 -258
-190 -443 -422 -410 -32 5 -72 16 -89 24 -18 9 -36 16 -41 16 -6 0 -8 -54 -6
-129 4 -153 9 -163 98 -180 54 -11 60 -15 60 -37 l0 -24 -220 0 -220 0 0 24
c0 22 6 26 48 32 88 12 82 -22 82 489 l0 452 -23 25 c-14 15 -40 27 -65 32
-36 5 -42 10 -42 30 0 22 5 25 53 30 28 3 90 7 137 8 l85 3 5 -49 5 -48 19 21
c73 81 203 111 306 72z m793 5 c65 -19 102 -49 129 -104 22 -46 23 -55 23
-305 l0 -259 28 -24 c19 -17 40 -24 68 -24 35 0 39 -3 39 -24 0 -20 -8 -27
-47 -40 -98 -33 -181 -11 -216 57 l-19 37 -38 -34 c-61 -55 -97 -69 -186 -74
-114 -6 -173 25 -209 111 -38 90 -6 197 76 253 25 16 108 52 185 78 183 64
174 58 174 114 0 66 -17 118 -49 154 -23 26 -37 32 -83 36 -71 6 -132 -20
-124 -52 20 -85 19 -94 -12 -126 -61 -61 -142 -26 -142 61 0 64 72 133 175
165 54 17 171 17 228 0z m887 -1 c42 -22 60 -53 60 -106 0 -64 -28 -99 -80
-99 -58 0 -85 27 -83 85 2 46 1 47 -25 40 -41 -10 -90 -43 -117 -79 -25 -33
-25 -33 -25 -270 l0 -237 24 -24 c16 -16 41 -26 75 -31 45 -6 51 -9 51 -30 l0
-24 -205 0 -205 0 0 24 c0 20 6 24 41 29 75 10 74 4 74 310 0 314 -1 318 -80
339 -36 10 -45 17 -45 34 0 20 6 23 63 28 34 3 94 7 132 8 l70 3 3 -58 3 -58
55 50 c77 70 157 95 214 66z m1265 4 c51 -14 102 -52 127 -96 l20 -34 49 46
c87 82 184 110 280 82 61 -18 99 -52 126 -112 15 -34 18 -77 20 -290 2 -137 6
-260 8 -272 6 -24 51 -53 85 -53 15 0 20 -6 20 -25 l0 -25 -185 0 -185 0 0 24
c0 20 6 24 42 29 23 3 48 14 55 23 17 23 19 488 2 531 -15 40 -57 81 -91 88
-55 13 -127 -14 -180 -65 l-49 -48 3 -240 c3 -271 5 -276 80 -288 32 -6 38
-11 38 -30 l0 -24 -185 0 -185 0 0 25 c0 21 5 25 30 25 19 0 40 9 55 25 l25
24 0 238 c0 228 -1 241 -22 283 -52 103 -173 104 -271 3 l-37 -37 0 -237 c0
-224 1 -238 21 -263 13 -17 34 -28 60 -32 33 -6 39 -10 39 -30 l0 -24 -191 0
-190 0 3 22 c2 18 12 24 42 29 75 12 76 17 76 313 0 243 -1 263 -20 293 -15
25 -32 36 -65 45 -36 10 -45 17 -45 34 0 23 18 26 230 37 l35 2 3 -57 c2 -32
6 -58 11 -58 4 0 23 16 42 36 74 77 179 109 274 83z m1341 -24 c97 -47 143
-127 152 -262 l5 -83 -257 0 -256 0 0 -28 c0 -51 21 -145 42 -187 46 -91 108
-129 213 -130 89 0 136 23 189 93 37 50 39 51 62 36 22 -15 22 -18 10 -42 -22
-40 -105 -117 -156 -143 -60 -30 -185 -38 -262 -15 -145 42 -234 172 -245 357
-13 209 89 379 257 426 69 20 181 10 246 -22z m892 11 c34 -18 64 -51 88 -96
17 -31 20 -68 25 -310 3 -151 6 -276 7 -277 8 -10 65 -33 82 -33 15 0 20 -6
20 -25 l0 -25 -185 0 -185 0 0 25 c0 22 4 25 34 25 19 0 44 9 57 19 24 19 24
22 27 236 2 133 -1 238 -8 269 -13 61 -58 113 -106 122 -53 10 -139 -21 -184
-66 l-40 -40 0 -239 c0 -226 1 -240 21 -265 13 -17 34 -28 60 -32 33 -6 39
-10 39 -30 l0 -24 -191 0 -190 0 3 22 c2 18 12 24 41 29 73 12 72 7 72 314 0
262 -1 275 -21 302 -13 18 -35 31 -62 37 -34 8 -42 14 -42 32 0 23 1 23 230
37 l35 2 5 -57 5 -57 55 46 c80 66 133 85 223 78 32 -3 70 -11 85 -19z m-8368
-334 c6 -383 2 -364 77 -378 26 -5 33 -11 33 -30 l0 -24 -185 0 -185 0 0 24
c0 20 6 24 39 30 70 11 71 16 71 311 0 307 -2 314 -89 335 -43 10 -51 16 -51
35 0 21 5 24 63 29 90 9 158 13 192 12 l30 -1 5 -343z m6550 -793 c0 -117 -3
-149 -12 -143 -10 6 -10 4 0 -7 19 -21 15 -41 -37 -177 -504 -1318 -1532
-2380 -2826 -2922 -96 -40 -259 -101 -280 -104 -5 -1 -15 -5 -21 -9 -7 -4 -23
-6 -35 -6 -13 1 -28 1 -34 -1 -22 -6 -75 1 -75 9 0 5 10 12 23 16 19 6 20 8 4
12 -11 3 -26 -4 -36 -16 -18 -21 -68 -30 -56 -11 3 6 -3 10 -14 10 -12 0 -21
-4 -21 -10 0 -15 -233 -13 -249 3 -11 9 -13 9 -7 0 5 -10 -8 -13 -56 -12 l-63
0 150 40 c1654 436 2972 1668 3513 3282 l66 197 33 0 33 0 0 -151z m-9609
-198 c3 -3 25 -55 49 -116 260 -667 714 -1328 1249 -1822 596 -551 1272 -934
2043 -1157 82 -24 145 -45 142 -48 -3 -3 0 -9 7 -14 8 -4 10 -3 5 4 -9 15 7
15 69 -2 47 -13 39 -14 -142 -15 -146 -1 -192 2 -196 11 -4 10 -8 10 -14 1 -4
-6 -30 -11 -56 -11 -27 0 -51 -3 -54 -6 -3 -2 -16 -1 -29 4 -15 6 -24 6 -24 0
0 -43 -631 232 -940 410 -1015 587 -1835 1548 -2239 2626 -62 165 -65 153 37
147 48 -3 90 -8 93 -12z m2556 -103 c158 -39 217 -278 101 -404 -59 -64 -145
-87 -233 -63 -56 16 -129 91 -145 149 -27 101 7 235 72 282 65 46 126 56 205
36z m-567 -23 c0 -25 -1 -25 -80 -25 l-80 0 0 -210 0 -210 -25 0 -25 0 0 210
0 210 -80 0 c-79 0 -80 0 -80 25 l0 25 185 0 185 0 0 -25z m1350 7 c45 -22 73
-74 66 -126 -5 -47 -38 -82 -91 -100 l-38 -13 26 -18 c22 -14 137 -174 137
-190 0 -3 -16 -5 -35 -5 -32 0 -38 6 -93 88 -33 48 -67 94 -77 102 -9 8 -46
16 -81 18 l-64 4 0 -106 0 -106 -30 0 -30 0 0 235 0 235 138 0 c110 0 144 -3
172 -18z m703 4 c18 -7 41 -26 51 -41 20 -31 24 -102 6 -135 -14 -26 -68 -60
-95 -60 -16 0 -12 -8 22 -42 34 -36 67 -83 117 -165 5 -10 -3 -13 -31 -13 -38
0 -40 2 -97 90 -65 101 -91 120 -166 120 l-50 0 0 -105 0 -105 -30 0 -30 0 0
235 0 235 135 0 c92 0 146 -4 168 -14z m747 -11 l0 -25 -140 0 -140 0 0 -75 0
-75 130 0 130 0 0 -25 0 -25 -130 0 -130 0 0 -85 0 -85 145 0 145 0 0 -25 0
-25 -180 0 -180 0 0 235 0 235 175 0 175 0 0 -25z m407 -155 c34 -96 65 -187
68 -202 6 -26 25 -40 25 -18 0 5 32 98 72 205 70 190 72 195 100 195 16 0 28
-5 27 -12 0 -7 -39 -112 -87 -233 l-88 -220 -34 0 -34 0 -88 225 c-48 124 -88
229 -88 233 0 5 14 7 32 5 32 -3 32 -4 95 -178z m653 -55 l0 -235 -30 0 -30 0
0 235 0 235 30 0 30 0 0 -235z m690 210 l0 -25 -140 0 -140 0 0 -75 0 -75 130
0 130 0 0 -25 0 -25 -130 0 -130 0 0 -85 0 -85 145 0 145 0 0 -25 0 -25 -175
0 -175 0 0 235 0 235 170 0 170 0 0 -25z m548 -174 c-3 -227 -9 -243 -84 -270
-77 -27 -143 4 -165 79 -14 45 -14 45 24 54 24 6 27 4 27 -19 0 -31 41 -75 70
-75 11 0 32 11 45 25 25 24 25 26 25 215 l0 190 31 0 31 0 -4 -199z m611 4
c42 -104 85 -209 94 -232 l17 -43 -33 0 c-30 0 -33 3 -57 68 l-25 67 -105 3
-105 3 -24 -71 c-23 -65 -26 -70 -53 -70 -20 0 -28 5 -26 13 2 8 41 114 88
236 l85 222 33 -3 34 -3 77 -190z"/>
<path d="M8040 14570 c0 -5 5 -10 10 -10 6 0 10 5 10 10 0 6 -4 10 -10 10 -5
0 -10 -4 -10 -10z"/>
<path d="M8160 14569 c0 -5 5 -7 10 -4 6 3 10 8 10 11 0 2 -4 4 -10 4 -5 0
-10 -5 -10 -11z"/>
<path d="M4820 11050 c0 -5 5 -10 11 -10 5 0 7 5 4 10 -3 6 -8 10 -11 10 -2 0
-4 -4 -4 -10z"/>
<path d="M11025 14570 c4 -6 11 -8 16 -5 14 9 11 15 -7 15 -8 0 -12 -5 -9 -10z"/>
<path d="M14560 11340 c0 -11 5 -20 10 -20 6 0 10 9 10 20 0 11 -4 20 -10 20
-5 0 -10 -9 -10 -20z"/>
<path d="M9950 9198 c-40 -106 -75 -199 -78 -205 -3 -10 32 -13 157 -13 89 0
161 3 161 8 1 15 -153 402 -160 402 -4 0 -40 -87 -80 -192z"/>
<path d="M2510 9359 l0 -222 93 6 c108 6 140 17 185 60 62 60 81 211 35 288
-39 67 -94 88 -230 89 l-83 0 0 -221z"/>
<path d="M2543 9083 l-33 -4 0 -210 c0 -125 4 -218 10 -230 18 -33 70 -52 140
-52 99 0 178 42 216 114 24 46 35 152 23 209 -14 67 -83 143 -144 159 -48 13
-167 21 -212 14z"/>
<path d="M3535 9258 c-75 -16 -139 -102 -151 -202 l-7 -56 183 0 183 0 -7 68
c-15 146 -87 214 -201 190z"/>
<path d="M4922 9259 c-50 -15 -84 -74 -89 -157 -7 -86 9 -144 52 -190 30 -33
39 -37 83 -37 55 0 89 23 120 80 25 46 23 179 -4 229 -35 67 -94 95 -162 75z"/>
<path d="M4873 8523 c-73 -25 -116 -100 -98 -170 11 -44 68 -90 129 -104 83
-18 212 -8 266 22 65 36 85 69 85 140 0 104 -50 128 -265 128 -41 0 -94 -7
-117 -16z"/>
<path d="M5844 8926 c-148 -55 -196 -103 -202 -203 -4 -58 -2 -64 25 -92 58
-57 150 -51 224 16 l39 35 0 134 c0 101 -3 134 -12 133 -7 0 -41 -10 -74 -23z"/>
<path d="M11005 9216 c-16 -7 -45 -25 -62 -40 l-33 -28 0 -227 c0 -260 4 -275
83 -325 107 -66 228 -17 278 113 16 42 23 86 27 171 3 100 1 124 -18 180 -27
82 -61 127 -114 151 -48 22 -118 24 -161 5z"/>
<path d="M11948 8921 c-43 -15 -95 -40 -116 -55 -76 -52 -105 -154 -62 -223
40 -66 150 -64 229 4 l41 35 0 134 c0 74 -3 134 -7 133 -5 0 -43 -13 -85 -28z"/>
<path d="M15295 9244 c-66 -34 -106 -100 -120 -196 l-7 -48 182 0 183 0 -7 68
c-13 126 -67 192 -157 192 -24 0 -57 -7 -74 -16z"/>
<path d="M14560 8250 c0 -5 5 -10 10 -10 6 0 10 5 10 10 0 6 -4 10 -10 10 -5
0 -10 -4 -10 -10z"/>
<path d="M11060 4830 c0 -5 5 -10 10 -10 6 0 10 5 10 10 0 6 -4 10 -10 10 -5
0 -10 -4 -10 -10z"/>
<path d="M8115 4830 c-3 -6 1 -7 9 -4 18 7 21 14 7 14 -6 0 -13 -4 -16 -10z"/>
<path d="M7415 7817 c-61 -29 -94 -93 -94 -187 -1 -69 26 -129 70 -161 46 -32
134 -34 176 -3 108 80 108 258 1 337 -33 25 -113 32 -153 14z"/>
<path d="M8080 7740 l0 -80 85 0 c135 0 189 36 164 108 -14 41 -46 52 -154 52
l-95 0 0 -80z"/>
<path d="M8790 7740 l0 -80 78 0 c132 0 172 21 172 89 0 20 -8 36 -26 50 -23
18 -41 21 -125 21 l-99 0 0 -80z"/>
<path d="M12538 7711 c-21 -60 -38 -111 -38 -115 0 -3 36 -6 81 -6 61 0 80 3
77 13 -3 6 -20 55 -38 107 -18 52 -36 98 -39 102 -3 4 -23 -42 -43 -101z"/>
</g>
</svg>
